<mxfile host="app.diagrams.net" modified="2021-05-16T04:40:09.444Z" agent="5.0 (Windows NT 10.0; Win64; x64) AppleWebKit/537.36 (KHTML, like Gecko) Chrome/90.0.4430.93 Safari/537.36" etag="3SnARc6WijAQ95yWjpLy" version="14.6.13" type="github">
  <diagram id="R2lEEEUBdFMjLlhIrx00" name="ERD">
    <mxGraphModel dx="1422" dy="794" grid="1" gridSize="10" guides="1" tooltips="1" connect="1" arrows="1" fold="1" page="1" pageScale="1" pageWidth="850" pageHeight="1100" math="0" shadow="0" extFonts="Permanent Marker^https://fonts.googleapis.com/css?family=Permanent+Marker">
      <root>
        <mxCell id="0" />
        <mxCell id="1" parent="0" />
        <mxCell id="N2lpxfCJUYB1sRcF9Xbd-147" value="" style="rounded=1;whiteSpace=wrap;html=1;labelBackgroundColor=none;align=center;" vertex="1" parent="1">
          <mxGeometry x="890" y="40" width="300" height="60" as="geometry" />
        </mxCell>
        <mxCell id="N2lpxfCJUYB1sRcF9Xbd-65" value="" style="rounded=1;whiteSpace=wrap;html=1;labelBackgroundColor=none;align=center;" vertex="1" parent="1">
          <mxGeometry x="110" y="40" width="580" height="60" as="geometry" />
        </mxCell>
        <mxCell id="C-vyLk0tnHw3VtMMgP7b-2" value="Transactions" style="shape=table;startSize=20;container=1;collapsible=1;childLayout=tableLayout;fixedRows=1;rowLines=0;fontStyle=1;align=center;resizeLast=1;" parent="1" vertex="1">
          <mxGeometry x="580" y="120" width="250" height="260" as="geometry" />
        </mxCell>
        <mxCell id="C-vyLk0tnHw3VtMMgP7b-3" value="" style="shape=partialRectangle;collapsible=0;dropTarget=0;pointerEvents=0;fillColor=none;points=[[0,0.5],[1,0.5]];portConstraint=eastwest;top=0;left=0;right=0;bottom=1;" parent="C-vyLk0tnHw3VtMMgP7b-2" vertex="1">
          <mxGeometry y="20" width="250" height="30" as="geometry" />
        </mxCell>
        <mxCell id="C-vyLk0tnHw3VtMMgP7b-4" value="PK" style="shape=partialRectangle;overflow=hidden;connectable=0;fillColor=none;top=0;left=0;bottom=0;right=0;fontStyle=1;" parent="C-vyLk0tnHw3VtMMgP7b-3" vertex="1">
          <mxGeometry width="30" height="30" as="geometry" />
        </mxCell>
        <mxCell id="C-vyLk0tnHw3VtMMgP7b-5" value="order_idÂ int NOT NULL " style="shape=partialRectangle;overflow=hidden;connectable=0;fillColor=none;top=0;left=0;bottom=0;right=0;align=left;spacingLeft=6;fontStyle=5;" parent="C-vyLk0tnHw3VtMMgP7b-3" vertex="1">
          <mxGeometry x="30" width="220" height="30" as="geometry" />
        </mxCell>
        <mxCell id="C-vyLk0tnHw3VtMMgP7b-6" value="" style="shape=partialRectangle;collapsible=0;dropTarget=0;pointerEvents=0;fillColor=none;points=[[0,0.5],[1,0.5]];portConstraint=eastwest;top=0;left=0;right=0;bottom=0;" parent="C-vyLk0tnHw3VtMMgP7b-2" vertex="1">
          <mxGeometry y="50" width="250" height="30" as="geometry" />
        </mxCell>
        <mxCell id="C-vyLk0tnHw3VtMMgP7b-7" value="FK1" style="shape=partialRectangle;overflow=hidden;connectable=0;fillColor=none;top=0;left=0;bottom=0;right=0;" parent="C-vyLk0tnHw3VtMMgP7b-6" vertex="1">
          <mxGeometry width="30" height="30" as="geometry" />
        </mxCell>
        <mxCell id="C-vyLk0tnHw3VtMMgP7b-8" value="client_id int NOT NULL" style="shape=partialRectangle;overflow=hidden;connectable=0;fillColor=none;top=0;left=0;bottom=0;right=0;align=left;spacingLeft=6;" parent="C-vyLk0tnHw3VtMMgP7b-6" vertex="1">
          <mxGeometry x="30" width="220" height="30" as="geometry" />
        </mxCell>
        <mxCell id="C-vyLk0tnHw3VtMMgP7b-9" value="" style="shape=partialRectangle;collapsible=0;dropTarget=0;pointerEvents=0;fillColor=none;points=[[0,0.5],[1,0.5]];portConstraint=eastwest;top=0;left=0;right=0;bottom=0;" parent="C-vyLk0tnHw3VtMMgP7b-2" vertex="1">
          <mxGeometry y="80" width="250" height="30" as="geometry" />
        </mxCell>
        <mxCell id="C-vyLk0tnHw3VtMMgP7b-10" value="" style="shape=partialRectangle;overflow=hidden;connectable=0;fillColor=none;top=0;left=0;bottom=0;right=0;" parent="C-vyLk0tnHw3VtMMgP7b-9" vertex="1">
          <mxGeometry width="30" height="30" as="geometry" />
        </mxCell>
        <mxCell id="C-vyLk0tnHw3VtMMgP7b-11" value="order_date date NOT NULL" style="shape=partialRectangle;overflow=hidden;connectable=0;fillColor=none;top=0;left=0;bottom=0;right=0;align=left;spacingLeft=6;" parent="C-vyLk0tnHw3VtMMgP7b-9" vertex="1">
          <mxGeometry x="30" width="220" height="30" as="geometry" />
        </mxCell>
        <mxCell id="N2lpxfCJUYB1sRcF9Xbd-81" value="" style="shape=partialRectangle;collapsible=0;dropTarget=0;pointerEvents=0;fillColor=none;points=[[0,0.5],[1,0.5]];portConstraint=eastwest;top=0;left=0;right=0;bottom=0;" vertex="1" parent="C-vyLk0tnHw3VtMMgP7b-2">
          <mxGeometry y="110" width="250" height="30" as="geometry" />
        </mxCell>
        <mxCell id="N2lpxfCJUYB1sRcF9Xbd-82" value="FK2" style="shape=partialRectangle;overflow=hidden;connectable=0;fillColor=none;top=0;left=0;bottom=0;right=0;" vertex="1" parent="N2lpxfCJUYB1sRcF9Xbd-81">
          <mxGeometry width="30" height="30" as="geometry" />
        </mxCell>
        <mxCell id="N2lpxfCJUYB1sRcF9Xbd-83" value="merchant_id NOT NULL" style="shape=partialRectangle;overflow=hidden;connectable=0;fillColor=none;top=0;left=0;bottom=0;right=0;align=left;spacingLeft=6;" vertex="1" parent="N2lpxfCJUYB1sRcF9Xbd-81">
          <mxGeometry x="30" width="220" height="30" as="geometry" />
        </mxCell>
        <mxCell id="N2lpxfCJUYB1sRcF9Xbd-84" value="" style="shape=partialRectangle;collapsible=0;dropTarget=0;pointerEvents=0;fillColor=none;points=[[0,0.5],[1,0.5]];portConstraint=eastwest;top=0;left=0;right=0;bottom=0;" vertex="1" parent="C-vyLk0tnHw3VtMMgP7b-2">
          <mxGeometry y="140" width="250" height="30" as="geometry" />
        </mxCell>
        <mxCell id="N2lpxfCJUYB1sRcF9Xbd-85" value="" style="shape=partialRectangle;overflow=hidden;connectable=0;fillColor=none;top=0;left=0;bottom=0;right=0;" vertex="1" parent="N2lpxfCJUYB1sRcF9Xbd-84">
          <mxGeometry width="30" height="30" as="geometry" />
        </mxCell>
        <mxCell id="N2lpxfCJUYB1sRcF9Xbd-86" value="product char(50) NOT NULL" style="shape=partialRectangle;overflow=hidden;connectable=0;fillColor=none;top=0;left=0;bottom=0;right=0;align=left;spacingLeft=6;" vertex="1" parent="N2lpxfCJUYB1sRcF9Xbd-84">
          <mxGeometry x="30" width="220" height="30" as="geometry" />
        </mxCell>
        <mxCell id="N2lpxfCJUYB1sRcF9Xbd-93" value="" style="shape=partialRectangle;collapsible=0;dropTarget=0;pointerEvents=0;fillColor=none;points=[[0,0.5],[1,0.5]];portConstraint=eastwest;top=0;left=0;right=0;bottom=0;" vertex="1" parent="C-vyLk0tnHw3VtMMgP7b-2">
          <mxGeometry y="170" width="250" height="30" as="geometry" />
        </mxCell>
        <mxCell id="N2lpxfCJUYB1sRcF9Xbd-94" value="" style="shape=partialRectangle;overflow=hidden;connectable=0;fillColor=none;top=0;left=0;bottom=0;right=0;" vertex="1" parent="N2lpxfCJUYB1sRcF9Xbd-93">
          <mxGeometry width="30" height="30" as="geometry" />
        </mxCell>
        <mxCell id="N2lpxfCJUYB1sRcF9Xbd-95" value="quantity int NOT NULL" style="shape=partialRectangle;overflow=hidden;connectable=0;fillColor=none;top=0;left=0;bottom=0;right=0;align=left;spacingLeft=6;" vertex="1" parent="N2lpxfCJUYB1sRcF9Xbd-93">
          <mxGeometry x="30" width="220" height="30" as="geometry" />
        </mxCell>
        <mxCell id="N2lpxfCJUYB1sRcF9Xbd-90" value="" style="shape=partialRectangle;collapsible=0;dropTarget=0;pointerEvents=0;fillColor=none;points=[[0,0.5],[1,0.5]];portConstraint=eastwest;top=0;left=0;right=0;bottom=0;" vertex="1" parent="C-vyLk0tnHw3VtMMgP7b-2">
          <mxGeometry y="200" width="250" height="30" as="geometry" />
        </mxCell>
        <mxCell id="N2lpxfCJUYB1sRcF9Xbd-91" value="" style="shape=partialRectangle;overflow=hidden;connectable=0;fillColor=none;top=0;left=0;bottom=0;right=0;" vertex="1" parent="N2lpxfCJUYB1sRcF9Xbd-90">
          <mxGeometry width="30" height="30" as="geometry" />
        </mxCell>
        <mxCell id="N2lpxfCJUYB1sRcF9Xbd-92" value="" style="shape=partialRectangle;overflow=hidden;connectable=0;fillColor=none;top=0;left=0;bottom=0;right=0;align=left;spacingLeft=6;" vertex="1" parent="N2lpxfCJUYB1sRcF9Xbd-90">
          <mxGeometry x="30" width="220" height="30" as="geometry" />
        </mxCell>
        <mxCell id="N2lpxfCJUYB1sRcF9Xbd-87" value="" style="shape=partialRectangle;collapsible=0;dropTarget=0;pointerEvents=0;fillColor=none;points=[[0,0.5],[1,0.5]];portConstraint=eastwest;top=0;left=0;right=0;bottom=0;" vertex="1" parent="C-vyLk0tnHw3VtMMgP7b-2">
          <mxGeometry y="230" width="250" height="30" as="geometry" />
        </mxCell>
        <mxCell id="N2lpxfCJUYB1sRcF9Xbd-88" value="" style="shape=partialRectangle;overflow=hidden;connectable=0;fillColor=none;top=0;left=0;bottom=0;right=0;" vertex="1" parent="N2lpxfCJUYB1sRcF9Xbd-87">
          <mxGeometry width="30" height="30" as="geometry" />
        </mxCell>
        <mxCell id="N2lpxfCJUYB1sRcF9Xbd-89" value="" style="shape=partialRectangle;overflow=hidden;connectable=0;fillColor=none;top=0;left=0;bottom=0;right=0;align=left;spacingLeft=6;" vertex="1" parent="N2lpxfCJUYB1sRcF9Xbd-87">
          <mxGeometry x="30" width="220" height="30" as="geometry" />
        </mxCell>
        <mxCell id="C-vyLk0tnHw3VtMMgP7b-23" value="User_id" style="shape=table;startSize=30;container=1;collapsible=1;childLayout=tableLayout;fixedRows=1;rowLines=0;fontStyle=1;align=center;resizeLast=1;" parent="1" vertex="1">
          <mxGeometry x="120" y="120" width="250" height="140" as="geometry" />
        </mxCell>
        <mxCell id="C-vyLk0tnHw3VtMMgP7b-24" value="" style="shape=partialRectangle;collapsible=0;dropTarget=0;pointerEvents=0;fillColor=none;points=[[0,0.5],[1,0.5]];portConstraint=eastwest;top=0;left=0;right=0;bottom=1;" parent="C-vyLk0tnHw3VtMMgP7b-23" vertex="1">
          <mxGeometry y="30" width="250" height="30" as="geometry" />
        </mxCell>
        <mxCell id="C-vyLk0tnHw3VtMMgP7b-25" value="PK" style="shape=partialRectangle;overflow=hidden;connectable=0;fillColor=none;top=0;left=0;bottom=0;right=0;fontStyle=1;" parent="C-vyLk0tnHw3VtMMgP7b-24" vertex="1">
          <mxGeometry width="30" height="30" as="geometry" />
        </mxCell>
        <mxCell id="C-vyLk0tnHw3VtMMgP7b-26" value="login_id int NOT NULL " style="shape=partialRectangle;overflow=hidden;connectable=0;fillColor=none;top=0;left=0;bottom=0;right=0;align=left;spacingLeft=6;fontStyle=5;" parent="C-vyLk0tnHw3VtMMgP7b-24" vertex="1">
          <mxGeometry x="30" width="220" height="30" as="geometry" />
        </mxCell>
        <mxCell id="C-vyLk0tnHw3VtMMgP7b-27" value="" style="shape=partialRectangle;collapsible=0;dropTarget=0;pointerEvents=0;fillColor=none;points=[[0,0.5],[1,0.5]];portConstraint=eastwest;top=0;left=0;right=0;bottom=0;" parent="C-vyLk0tnHw3VtMMgP7b-23" vertex="1">
          <mxGeometry y="60" width="250" height="40" as="geometry" />
        </mxCell>
        <mxCell id="C-vyLk0tnHw3VtMMgP7b-28" value="FK1" style="shape=partialRectangle;overflow=hidden;connectable=0;fillColor=none;top=0;left=0;bottom=0;right=0;" parent="C-vyLk0tnHw3VtMMgP7b-27" vertex="1">
          <mxGeometry width="30" height="40" as="geometry" />
        </mxCell>
        <mxCell id="C-vyLk0tnHw3VtMMgP7b-29" value="client_id int NOT NULL" style="shape=partialRectangle;overflow=hidden;connectable=0;fillColor=none;top=0;left=0;bottom=0;right=0;align=left;spacingLeft=6;" parent="C-vyLk0tnHw3VtMMgP7b-27" vertex="1">
          <mxGeometry x="30" width="220" height="40" as="geometry" />
        </mxCell>
        <mxCell id="2c53xwHn9IboJPMbNdfc-1" value="Client" style="shape=table;startSize=30;container=1;collapsible=1;childLayout=tableLayout;fixedRows=1;rowLines=0;fontStyle=1;align=center;resizeLast=1;" parent="1" vertex="1">
          <mxGeometry x="120" y="300" width="250" height="120" as="geometry" />
        </mxCell>
        <mxCell id="2c53xwHn9IboJPMbNdfc-2" value="" style="shape=partialRectangle;collapsible=0;dropTarget=0;pointerEvents=0;fillColor=none;points=[[0,0.5],[1,0.5]];portConstraint=eastwest;top=0;left=0;right=0;bottom=1;" parent="2c53xwHn9IboJPMbNdfc-1" vertex="1">
          <mxGeometry y="30" width="250" height="30" as="geometry" />
        </mxCell>
        <mxCell id="2c53xwHn9IboJPMbNdfc-3" value="PK" style="shape=partialRectangle;overflow=hidden;connectable=0;fillColor=none;top=0;left=0;bottom=0;right=0;fontStyle=1;" parent="2c53xwHn9IboJPMbNdfc-2" vertex="1">
          <mxGeometry width="30" height="30" as="geometry" />
        </mxCell>
        <mxCell id="2c53xwHn9IboJPMbNdfc-4" value="client_id int NOT NULL" style="shape=partialRectangle;overflow=hidden;connectable=0;fillColor=none;top=0;left=0;bottom=0;right=0;align=left;spacingLeft=6;fontStyle=5;" parent="2c53xwHn9IboJPMbNdfc-2" vertex="1">
          <mxGeometry x="30" width="220" height="30" as="geometry" />
        </mxCell>
        <mxCell id="2c53xwHn9IboJPMbNdfc-5" value="" style="shape=partialRectangle;collapsible=0;dropTarget=0;pointerEvents=0;fillColor=none;points=[[0,0.5],[1,0.5]];portConstraint=eastwest;top=0;left=0;right=0;bottom=0;" parent="2c53xwHn9IboJPMbNdfc-1" vertex="1">
          <mxGeometry y="60" width="250" height="30" as="geometry" />
        </mxCell>
        <mxCell id="2c53xwHn9IboJPMbNdfc-6" value="" style="shape=partialRectangle;overflow=hidden;connectable=0;fillColor=none;top=0;left=0;bottom=0;right=0;" parent="2c53xwHn9IboJPMbNdfc-5" vertex="1">
          <mxGeometry width="30" height="30" as="geometry" />
        </mxCell>
        <mxCell id="2c53xwHn9IboJPMbNdfc-7" value="UEN char(50)" style="shape=partialRectangle;overflow=hidden;connectable=0;fillColor=none;top=0;left=0;bottom=0;right=0;align=left;spacingLeft=6;" parent="2c53xwHn9IboJPMbNdfc-5" vertex="1">
          <mxGeometry x="30" width="220" height="30" as="geometry" />
        </mxCell>
        <mxCell id="2c53xwHn9IboJPMbNdfc-9" value="" style="shape=partialRectangle;collapsible=0;dropTarget=0;pointerEvents=0;fillColor=none;points=[[0,0.5],[1,0.5]];portConstraint=eastwest;top=0;left=0;right=0;bottom=0;" parent="1" vertex="1">
          <mxGeometry x="120" y="390" width="250" height="30" as="geometry" />
        </mxCell>
        <mxCell id="2c53xwHn9IboJPMbNdfc-10" value="" style="shape=partialRectangle;overflow=hidden;connectable=0;fillColor=none;top=0;left=0;bottom=0;right=0;" parent="2c53xwHn9IboJPMbNdfc-9" vertex="1">
          <mxGeometry width="30" height="30" as="geometry" />
        </mxCell>
        <mxCell id="2c53xwHn9IboJPMbNdfc-11" value="company_name char(50) NOT NULL" style="shape=partialRectangle;overflow=hidden;connectable=0;fillColor=none;top=0;left=0;bottom=0;right=0;align=left;spacingLeft=6;" parent="2c53xwHn9IboJPMbNdfc-9" vertex="1">
          <mxGeometry x="30" width="220" height="30" as="geometry" />
        </mxCell>
        <mxCell id="2c53xwHn9IboJPMbNdfc-35" value="Contact" style="shape=table;startSize=30;container=1;collapsible=1;childLayout=tableLayout;fixedRows=1;rowLines=0;fontStyle=1;align=center;resizeLast=1;" parent="1" vertex="1">
          <mxGeometry x="120" y="640" width="180" height="160" as="geometry" />
        </mxCell>
        <mxCell id="2c53xwHn9IboJPMbNdfc-36" value="" style="shape=partialRectangle;collapsible=0;dropTarget=0;pointerEvents=0;fillColor=none;top=0;left=0;bottom=1;right=0;points=[[0,0.5],[1,0.5]];portConstraint=eastwest;" parent="2c53xwHn9IboJPMbNdfc-35" vertex="1">
          <mxGeometry y="30" width="180" height="30" as="geometry" />
        </mxCell>
        <mxCell id="2c53xwHn9IboJPMbNdfc-37" value="PK" style="shape=partialRectangle;connectable=0;fillColor=none;top=0;left=0;bottom=0;right=0;fontStyle=1;overflow=hidden;" parent="2c53xwHn9IboJPMbNdfc-36" vertex="1">
          <mxGeometry width="30" height="30" as="geometry" />
        </mxCell>
        <mxCell id="2c53xwHn9IboJPMbNdfc-38" value="contact_id" style="shape=partialRectangle;connectable=0;fillColor=none;top=0;left=0;bottom=0;right=0;align=left;spacingLeft=6;fontStyle=5;overflow=hidden;" parent="2c53xwHn9IboJPMbNdfc-36" vertex="1">
          <mxGeometry x="30" width="150" height="30" as="geometry" />
        </mxCell>
        <mxCell id="2c53xwHn9IboJPMbNdfc-39" value="" style="shape=partialRectangle;collapsible=0;dropTarget=0;pointerEvents=0;fillColor=none;top=0;left=0;bottom=0;right=0;points=[[0,0.5],[1,0.5]];portConstraint=eastwest;" parent="2c53xwHn9IboJPMbNdfc-35" vertex="1">
          <mxGeometry y="60" width="180" height="30" as="geometry" />
        </mxCell>
        <mxCell id="2c53xwHn9IboJPMbNdfc-40" value="" style="shape=partialRectangle;connectable=0;fillColor=none;top=0;left=0;bottom=0;right=0;editable=1;overflow=hidden;" parent="2c53xwHn9IboJPMbNdfc-39" vertex="1">
          <mxGeometry width="30" height="30" as="geometry" />
        </mxCell>
        <mxCell id="2c53xwHn9IboJPMbNdfc-41" value="name" style="shape=partialRectangle;connectable=0;fillColor=none;top=0;left=0;bottom=0;right=0;align=left;spacingLeft=6;overflow=hidden;" parent="2c53xwHn9IboJPMbNdfc-39" vertex="1">
          <mxGeometry x="30" width="150" height="30" as="geometry" />
        </mxCell>
        <mxCell id="2c53xwHn9IboJPMbNdfc-42" value="" style="shape=partialRectangle;collapsible=0;dropTarget=0;pointerEvents=0;fillColor=none;top=0;left=0;bottom=0;right=0;points=[[0,0.5],[1,0.5]];portConstraint=eastwest;" parent="2c53xwHn9IboJPMbNdfc-35" vertex="1">
          <mxGeometry y="90" width="180" height="30" as="geometry" />
        </mxCell>
        <mxCell id="2c53xwHn9IboJPMbNdfc-43" value="" style="shape=partialRectangle;connectable=0;fillColor=none;top=0;left=0;bottom=0;right=0;editable=1;overflow=hidden;" parent="2c53xwHn9IboJPMbNdfc-42" vertex="1">
          <mxGeometry width="30" height="30" as="geometry" />
        </mxCell>
        <mxCell id="2c53xwHn9IboJPMbNdfc-44" value="email_id" style="shape=partialRectangle;connectable=0;fillColor=none;top=0;left=0;bottom=0;right=0;align=left;spacingLeft=6;overflow=hidden;" parent="2c53xwHn9IboJPMbNdfc-42" vertex="1">
          <mxGeometry x="30" width="150" height="30" as="geometry" />
        </mxCell>
        <mxCell id="2c53xwHn9IboJPMbNdfc-45" value="" style="shape=partialRectangle;collapsible=0;dropTarget=0;pointerEvents=0;fillColor=none;top=0;left=0;bottom=0;right=0;points=[[0,0.5],[1,0.5]];portConstraint=eastwest;" parent="2c53xwHn9IboJPMbNdfc-35" vertex="1">
          <mxGeometry y="120" width="180" height="30" as="geometry" />
        </mxCell>
        <mxCell id="2c53xwHn9IboJPMbNdfc-46" value="" style="shape=partialRectangle;connectable=0;fillColor=none;top=0;left=0;bottom=0;right=0;editable=1;overflow=hidden;" parent="2c53xwHn9IboJPMbNdfc-45" vertex="1">
          <mxGeometry width="30" height="30" as="geometry" />
        </mxCell>
        <mxCell id="2c53xwHn9IboJPMbNdfc-47" value="phone_no" style="shape=partialRectangle;connectable=0;fillColor=none;top=0;left=0;bottom=0;right=0;align=left;spacingLeft=6;overflow=hidden;" parent="2c53xwHn9IboJPMbNdfc-45" vertex="1">
          <mxGeometry x="30" width="150" height="30" as="geometry" />
        </mxCell>
        <mxCell id="2c53xwHn9IboJPMbNdfc-48" value="Address" style="shape=table;startSize=30;container=1;collapsible=1;childLayout=tableLayout;fixedRows=1;rowLines=0;fontStyle=1;align=center;resizeLast=1;" parent="1" vertex="1">
          <mxGeometry x="120" y="460" width="180" height="150" as="geometry" />
        </mxCell>
        <mxCell id="2c53xwHn9IboJPMbNdfc-49" value="" style="shape=partialRectangle;collapsible=0;dropTarget=0;pointerEvents=0;fillColor=none;top=0;left=0;bottom=1;right=0;points=[[0,0.5],[1,0.5]];portConstraint=eastwest;" parent="2c53xwHn9IboJPMbNdfc-48" vertex="1">
          <mxGeometry y="30" width="180" height="30" as="geometry" />
        </mxCell>
        <mxCell id="2c53xwHn9IboJPMbNdfc-50" value="PK" style="shape=partialRectangle;connectable=0;fillColor=none;top=0;left=0;bottom=0;right=0;fontStyle=1;overflow=hidden;" parent="2c53xwHn9IboJPMbNdfc-49" vertex="1">
          <mxGeometry width="30" height="30" as="geometry" />
        </mxCell>
        <mxCell id="2c53xwHn9IboJPMbNdfc-51" value="address_id" style="shape=partialRectangle;connectable=0;fillColor=none;top=0;left=0;bottom=0;right=0;align=left;spacingLeft=6;fontStyle=5;overflow=hidden;" parent="2c53xwHn9IboJPMbNdfc-49" vertex="1">
          <mxGeometry x="30" width="150" height="30" as="geometry" />
        </mxCell>
        <mxCell id="2c53xwHn9IboJPMbNdfc-52" value="" style="shape=partialRectangle;collapsible=0;dropTarget=0;pointerEvents=0;fillColor=none;top=0;left=0;bottom=0;right=0;points=[[0,0.5],[1,0.5]];portConstraint=eastwest;" parent="2c53xwHn9IboJPMbNdfc-48" vertex="1">
          <mxGeometry y="60" width="180" height="30" as="geometry" />
        </mxCell>
        <mxCell id="2c53xwHn9IboJPMbNdfc-53" value="" style="shape=partialRectangle;connectable=0;fillColor=none;top=0;left=0;bottom=0;right=0;editable=1;overflow=hidden;" parent="2c53xwHn9IboJPMbNdfc-52" vertex="1">
          <mxGeometry width="30" height="30" as="geometry" />
        </mxCell>
        <mxCell id="2c53xwHn9IboJPMbNdfc-54" value="add_row1" style="shape=partialRectangle;connectable=0;fillColor=none;top=0;left=0;bottom=0;right=0;align=left;spacingLeft=6;overflow=hidden;" parent="2c53xwHn9IboJPMbNdfc-52" vertex="1">
          <mxGeometry x="30" width="150" height="30" as="geometry" />
        </mxCell>
        <mxCell id="2c53xwHn9IboJPMbNdfc-55" value="" style="shape=partialRectangle;collapsible=0;dropTarget=0;pointerEvents=0;fillColor=none;top=0;left=0;bottom=0;right=0;points=[[0,0.5],[1,0.5]];portConstraint=eastwest;" parent="2c53xwHn9IboJPMbNdfc-48" vertex="1">
          <mxGeometry y="90" width="180" height="30" as="geometry" />
        </mxCell>
        <mxCell id="2c53xwHn9IboJPMbNdfc-56" value="" style="shape=partialRectangle;connectable=0;fillColor=none;top=0;left=0;bottom=0;right=0;editable=1;overflow=hidden;" parent="2c53xwHn9IboJPMbNdfc-55" vertex="1">
          <mxGeometry width="30" height="30" as="geometry" />
        </mxCell>
        <mxCell id="2c53xwHn9IboJPMbNdfc-57" value="add_row2" style="shape=partialRectangle;connectable=0;fillColor=none;top=0;left=0;bottom=0;right=0;align=left;spacingLeft=6;overflow=hidden;" parent="2c53xwHn9IboJPMbNdfc-55" vertex="1">
          <mxGeometry x="30" width="150" height="30" as="geometry" />
        </mxCell>
        <mxCell id="2c53xwHn9IboJPMbNdfc-58" value="" style="shape=partialRectangle;collapsible=0;dropTarget=0;pointerEvents=0;fillColor=none;top=0;left=0;bottom=0;right=0;points=[[0,0.5],[1,0.5]];portConstraint=eastwest;" parent="2c53xwHn9IboJPMbNdfc-48" vertex="1">
          <mxGeometry y="120" width="180" height="30" as="geometry" />
        </mxCell>
        <mxCell id="2c53xwHn9IboJPMbNdfc-59" value="" style="shape=partialRectangle;connectable=0;fillColor=none;top=0;left=0;bottom=0;right=0;editable=1;overflow=hidden;" parent="2c53xwHn9IboJPMbNdfc-58" vertex="1">
          <mxGeometry width="30" height="30" as="geometry" />
        </mxCell>
        <mxCell id="2c53xwHn9IboJPMbNdfc-60" value="country" style="shape=partialRectangle;connectable=0;fillColor=none;top=0;left=0;bottom=0;right=0;align=left;spacingLeft=6;overflow=hidden;" parent="2c53xwHn9IboJPMbNdfc-58" vertex="1">
          <mxGeometry x="30" width="150" height="30" as="geometry" />
        </mxCell>
        <mxCell id="2c53xwHn9IboJPMbNdfc-82" value="Client_Contacts" style="shape=table;startSize=30;container=1;collapsible=1;childLayout=tableLayout;fixedRows=1;rowLines=0;fontStyle=1;align=center;resizeLast=1;html=1;" parent="1" vertex="1">
          <mxGeometry x="480" y="650" width="180" height="150" as="geometry" />
        </mxCell>
        <mxCell id="2c53xwHn9IboJPMbNdfc-83" value="" style="shape=partialRectangle;collapsible=0;dropTarget=0;pointerEvents=0;fillColor=none;top=0;left=0;bottom=1;right=0;points=[[0,0.5],[1,0.5]];portConstraint=eastwest;" parent="2c53xwHn9IboJPMbNdfc-82" vertex="1">
          <mxGeometry y="30" width="180" height="30" as="geometry" />
        </mxCell>
        <mxCell id="2c53xwHn9IboJPMbNdfc-84" value="PK" style="shape=partialRectangle;connectable=0;fillColor=none;top=0;left=0;bottom=0;right=0;fontStyle=1;overflow=hidden;" parent="2c53xwHn9IboJPMbNdfc-83" vertex="1">
          <mxGeometry width="30" height="30" as="geometry" />
        </mxCell>
        <mxCell id="2c53xwHn9IboJPMbNdfc-85" value="UniqueID" style="shape=partialRectangle;connectable=0;fillColor=none;top=0;left=0;bottom=0;right=0;align=left;spacingLeft=6;fontStyle=5;overflow=hidden;" parent="2c53xwHn9IboJPMbNdfc-83" vertex="1">
          <mxGeometry x="30" width="150" height="30" as="geometry" />
        </mxCell>
        <mxCell id="2c53xwHn9IboJPMbNdfc-86" value="" style="shape=partialRectangle;collapsible=0;dropTarget=0;pointerEvents=0;fillColor=none;top=0;left=0;bottom=0;right=0;points=[[0,0.5],[1,0.5]];portConstraint=eastwest;" parent="2c53xwHn9IboJPMbNdfc-82" vertex="1">
          <mxGeometry y="60" width="180" height="30" as="geometry" />
        </mxCell>
        <mxCell id="2c53xwHn9IboJPMbNdfc-87" value="FK1" style="shape=partialRectangle;connectable=0;fillColor=none;top=0;left=0;bottom=0;right=0;editable=1;overflow=hidden;" parent="2c53xwHn9IboJPMbNdfc-86" vertex="1">
          <mxGeometry width="30" height="30" as="geometry" />
        </mxCell>
        <mxCell id="2c53xwHn9IboJPMbNdfc-88" value="client_id int NOT NULL" style="shape=partialRectangle;connectable=0;fillColor=none;top=0;left=0;bottom=0;right=0;align=left;spacingLeft=6;overflow=hidden;" parent="2c53xwHn9IboJPMbNdfc-86" vertex="1">
          <mxGeometry x="30" width="150" height="30" as="geometry" />
        </mxCell>
        <mxCell id="2c53xwHn9IboJPMbNdfc-89" value="" style="shape=partialRectangle;collapsible=0;dropTarget=0;pointerEvents=0;fillColor=none;top=0;left=0;bottom=0;right=0;points=[[0,0.5],[1,0.5]];portConstraint=eastwest;" parent="2c53xwHn9IboJPMbNdfc-82" vertex="1">
          <mxGeometry y="90" width="180" height="30" as="geometry" />
        </mxCell>
        <mxCell id="2c53xwHn9IboJPMbNdfc-90" value="FK2" style="shape=partialRectangle;connectable=0;fillColor=none;top=0;left=0;bottom=0;right=0;editable=1;overflow=hidden;" parent="2c53xwHn9IboJPMbNdfc-89" vertex="1">
          <mxGeometry width="30" height="30" as="geometry" />
        </mxCell>
        <mxCell id="2c53xwHn9IboJPMbNdfc-91" value="contact_id int NOT NULL" style="shape=partialRectangle;connectable=0;fillColor=none;top=0;left=0;bottom=0;right=0;align=left;spacingLeft=6;overflow=hidden;" parent="2c53xwHn9IboJPMbNdfc-89" vertex="1">
          <mxGeometry x="30" width="150" height="30" as="geometry" />
        </mxCell>
        <mxCell id="2c53xwHn9IboJPMbNdfc-92" value="" style="shape=partialRectangle;collapsible=0;dropTarget=0;pointerEvents=0;fillColor=none;top=0;left=0;bottom=0;right=0;points=[[0,0.5],[1,0.5]];portConstraint=eastwest;" parent="2c53xwHn9IboJPMbNdfc-82" vertex="1">
          <mxGeometry y="120" width="180" height="30" as="geometry" />
        </mxCell>
        <mxCell id="2c53xwHn9IboJPMbNdfc-93" value="" style="shape=partialRectangle;connectable=0;fillColor=none;top=0;left=0;bottom=0;right=0;editable=1;overflow=hidden;" parent="2c53xwHn9IboJPMbNdfc-92" vertex="1">
          <mxGeometry width="30" height="30" as="geometry" />
        </mxCell>
        <mxCell id="2c53xwHn9IboJPMbNdfc-94" value="" style="shape=partialRectangle;connectable=0;fillColor=none;top=0;left=0;bottom=0;right=0;align=left;spacingLeft=6;overflow=hidden;" parent="2c53xwHn9IboJPMbNdfc-92" vertex="1">
          <mxGeometry x="30" width="150" height="30" as="geometry" />
        </mxCell>
        <mxCell id="2c53xwHn9IboJPMbNdfc-95" value="Client_Address" style="shape=table;startSize=30;container=1;collapsible=1;childLayout=tableLayout;fixedRows=1;rowLines=0;fontStyle=1;align=center;resizeLast=1;html=1;" parent="1" vertex="1">
          <mxGeometry x="480" y="470" width="180" height="150" as="geometry" />
        </mxCell>
        <mxCell id="2c53xwHn9IboJPMbNdfc-96" value="" style="shape=partialRectangle;collapsible=0;dropTarget=0;pointerEvents=0;fillColor=none;top=0;left=0;bottom=1;right=0;points=[[0,0.5],[1,0.5]];portConstraint=eastwest;" parent="2c53xwHn9IboJPMbNdfc-95" vertex="1">
          <mxGeometry y="30" width="180" height="30" as="geometry" />
        </mxCell>
        <mxCell id="2c53xwHn9IboJPMbNdfc-97" value="PK" style="shape=partialRectangle;connectable=0;fillColor=none;top=0;left=0;bottom=0;right=0;fontStyle=1;overflow=hidden;" parent="2c53xwHn9IboJPMbNdfc-96" vertex="1">
          <mxGeometry width="30" height="30" as="geometry" />
        </mxCell>
        <mxCell id="2c53xwHn9IboJPMbNdfc-98" value="UniqueID" style="shape=partialRectangle;connectable=0;fillColor=none;top=0;left=0;bottom=0;right=0;align=left;spacingLeft=6;fontStyle=5;overflow=hidden;" parent="2c53xwHn9IboJPMbNdfc-96" vertex="1">
          <mxGeometry x="30" width="150" height="30" as="geometry" />
        </mxCell>
        <mxCell id="2c53xwHn9IboJPMbNdfc-99" value="" style="shape=partialRectangle;collapsible=0;dropTarget=0;pointerEvents=0;fillColor=none;top=0;left=0;bottom=0;right=0;points=[[0,0.5],[1,0.5]];portConstraint=eastwest;" parent="2c53xwHn9IboJPMbNdfc-95" vertex="1">
          <mxGeometry y="60" width="180" height="30" as="geometry" />
        </mxCell>
        <mxCell id="2c53xwHn9IboJPMbNdfc-100" value="FK1" style="shape=partialRectangle;connectable=0;fillColor=none;top=0;left=0;bottom=0;right=0;editable=1;overflow=hidden;" parent="2c53xwHn9IboJPMbNdfc-99" vertex="1">
          <mxGeometry width="30" height="30" as="geometry" />
        </mxCell>
        <mxCell id="2c53xwHn9IboJPMbNdfc-101" value="client_id int not NULL" style="shape=partialRectangle;connectable=0;fillColor=none;top=0;left=0;bottom=0;right=0;align=left;spacingLeft=6;overflow=hidden;" parent="2c53xwHn9IboJPMbNdfc-99" vertex="1">
          <mxGeometry x="30" width="150" height="30" as="geometry" />
        </mxCell>
        <mxCell id="2c53xwHn9IboJPMbNdfc-102" value="" style="shape=partialRectangle;collapsible=0;dropTarget=0;pointerEvents=0;fillColor=none;top=0;left=0;bottom=0;right=0;points=[[0,0.5],[1,0.5]];portConstraint=eastwest;" parent="2c53xwHn9IboJPMbNdfc-95" vertex="1">
          <mxGeometry y="90" width="180" height="30" as="geometry" />
        </mxCell>
        <mxCell id="2c53xwHn9IboJPMbNdfc-103" value="FK2" style="shape=partialRectangle;connectable=0;fillColor=none;top=0;left=0;bottom=0;right=0;editable=1;overflow=hidden;" parent="2c53xwHn9IboJPMbNdfc-102" vertex="1">
          <mxGeometry width="30" height="30" as="geometry" />
        </mxCell>
        <mxCell id="2c53xwHn9IboJPMbNdfc-104" value="address_id" style="shape=partialRectangle;connectable=0;fillColor=none;top=0;left=0;bottom=0;right=0;align=left;spacingLeft=6;overflow=hidden;" parent="2c53xwHn9IboJPMbNdfc-102" vertex="1">
          <mxGeometry x="30" width="150" height="30" as="geometry" />
        </mxCell>
        <mxCell id="2c53xwHn9IboJPMbNdfc-105" value="" style="shape=partialRectangle;collapsible=0;dropTarget=0;pointerEvents=0;fillColor=none;top=0;left=0;bottom=0;right=0;points=[[0,0.5],[1,0.5]];portConstraint=eastwest;" parent="2c53xwHn9IboJPMbNdfc-95" vertex="1">
          <mxGeometry y="120" width="180" height="30" as="geometry" />
        </mxCell>
        <mxCell id="2c53xwHn9IboJPMbNdfc-106" value="" style="shape=partialRectangle;connectable=0;fillColor=none;top=0;left=0;bottom=0;right=0;editable=1;overflow=hidden;" parent="2c53xwHn9IboJPMbNdfc-105" vertex="1">
          <mxGeometry width="30" height="30" as="geometry" />
        </mxCell>
        <mxCell id="2c53xwHn9IboJPMbNdfc-107" value="" style="shape=partialRectangle;connectable=0;fillColor=none;top=0;left=0;bottom=0;right=0;align=left;spacingLeft=6;overflow=hidden;" parent="2c53xwHn9IboJPMbNdfc-105" vertex="1">
          <mxGeometry x="30" width="150" height="30" as="geometry" />
        </mxCell>
        <mxCell id="2c53xwHn9IboJPMbNdfc-108" value="Client_Owner&lt;br&gt;" style="shape=table;startSize=30;container=1;collapsible=1;childLayout=tableLayout;fixedRows=1;rowLines=0;fontStyle=1;align=center;resizeLast=1;html=1;" parent="1" vertex="1">
          <mxGeometry x="472.5" y="840" width="195" height="160" as="geometry" />
        </mxCell>
        <mxCell id="2c53xwHn9IboJPMbNdfc-109" value="" style="shape=partialRectangle;collapsible=0;dropTarget=0;pointerEvents=0;fillColor=none;top=0;left=0;bottom=1;right=0;points=[[0,0.5],[1,0.5]];portConstraint=eastwest;" parent="2c53xwHn9IboJPMbNdfc-108" vertex="1">
          <mxGeometry y="30" width="195" height="30" as="geometry" />
        </mxCell>
        <mxCell id="2c53xwHn9IboJPMbNdfc-110" value="PK" style="shape=partialRectangle;connectable=0;fillColor=none;top=0;left=0;bottom=0;right=0;fontStyle=1;overflow=hidden;" parent="2c53xwHn9IboJPMbNdfc-109" vertex="1">
          <mxGeometry width="30" height="30" as="geometry" />
        </mxCell>
        <mxCell id="2c53xwHn9IboJPMbNdfc-111" value="UniqueID int NOT NULL" style="shape=partialRectangle;connectable=0;fillColor=none;top=0;left=0;bottom=0;right=0;align=left;spacingLeft=6;fontStyle=5;overflow=hidden;" parent="2c53xwHn9IboJPMbNdfc-109" vertex="1">
          <mxGeometry x="30" width="165" height="30" as="geometry" />
        </mxCell>
        <mxCell id="2c53xwHn9IboJPMbNdfc-112" value="" style="shape=partialRectangle;collapsible=0;dropTarget=0;pointerEvents=0;fillColor=none;top=0;left=0;bottom=0;right=0;points=[[0,0.5],[1,0.5]];portConstraint=eastwest;" parent="2c53xwHn9IboJPMbNdfc-108" vertex="1">
          <mxGeometry y="60" width="195" height="30" as="geometry" />
        </mxCell>
        <mxCell id="2c53xwHn9IboJPMbNdfc-113" value="FK1" style="shape=partialRectangle;connectable=0;fillColor=none;top=0;left=0;bottom=0;right=0;editable=1;overflow=hidden;" parent="2c53xwHn9IboJPMbNdfc-112" vertex="1">
          <mxGeometry width="30" height="30" as="geometry" />
        </mxCell>
        <mxCell id="2c53xwHn9IboJPMbNdfc-114" value="client_id int not NULL" style="shape=partialRectangle;connectable=0;fillColor=none;top=0;left=0;bottom=0;right=0;align=left;spacingLeft=6;overflow=hidden;" parent="2c53xwHn9IboJPMbNdfc-112" vertex="1">
          <mxGeometry x="30" width="165" height="30" as="geometry" />
        </mxCell>
        <mxCell id="2c53xwHn9IboJPMbNdfc-115" value="" style="shape=partialRectangle;collapsible=0;dropTarget=0;pointerEvents=0;fillColor=none;top=0;left=0;bottom=0;right=0;points=[[0,0.5],[1,0.5]];portConstraint=eastwest;" parent="2c53xwHn9IboJPMbNdfc-108" vertex="1">
          <mxGeometry y="90" width="195" height="30" as="geometry" />
        </mxCell>
        <mxCell id="2c53xwHn9IboJPMbNdfc-116" value="FK2" style="shape=partialRectangle;connectable=0;fillColor=none;top=0;left=0;bottom=0;right=0;editable=1;overflow=hidden;" parent="2c53xwHn9IboJPMbNdfc-115" vertex="1">
          <mxGeometry width="30" height="30" as="geometry" />
        </mxCell>
        <mxCell id="2c53xwHn9IboJPMbNdfc-117" value="owner_id int NOT NULL" style="shape=partialRectangle;connectable=0;fillColor=none;top=0;left=0;bottom=0;right=0;align=left;spacingLeft=6;overflow=hidden;" parent="2c53xwHn9IboJPMbNdfc-115" vertex="1">
          <mxGeometry x="30" width="165" height="30" as="geometry" />
        </mxCell>
        <mxCell id="2c53xwHn9IboJPMbNdfc-118" value="" style="shape=partialRectangle;collapsible=0;dropTarget=0;pointerEvents=0;fillColor=none;top=0;left=0;bottom=0;right=0;points=[[0,0.5],[1,0.5]];portConstraint=eastwest;" parent="2c53xwHn9IboJPMbNdfc-108" vertex="1">
          <mxGeometry y="120" width="195" height="30" as="geometry" />
        </mxCell>
        <mxCell id="2c53xwHn9IboJPMbNdfc-119" value="" style="shape=partialRectangle;connectable=0;fillColor=none;top=0;left=0;bottom=0;right=0;editable=1;overflow=hidden;" parent="2c53xwHn9IboJPMbNdfc-118" vertex="1">
          <mxGeometry width="30" height="30" as="geometry" />
        </mxCell>
        <mxCell id="2c53xwHn9IboJPMbNdfc-120" value="position char(50) NOT NULL" style="shape=partialRectangle;connectable=0;fillColor=none;top=0;left=0;bottom=0;right=0;align=left;spacingLeft=6;overflow=hidden;" parent="2c53xwHn9IboJPMbNdfc-118" vertex="1">
          <mxGeometry x="30" width="165" height="30" as="geometry" />
        </mxCell>
        <mxCell id="2c53xwHn9IboJPMbNdfc-121" value="Bank_Account" style="shape=table;startSize=30;container=1;collapsible=1;childLayout=tableLayout;fixedRows=1;rowLines=0;fontStyle=1;align=center;resizeLast=1;html=1;" parent="1" vertex="1">
          <mxGeometry x="120" y="1080" width="220" height="160" as="geometry" />
        </mxCell>
        <mxCell id="2c53xwHn9IboJPMbNdfc-122" value="" style="shape=partialRectangle;collapsible=0;dropTarget=0;pointerEvents=0;fillColor=none;top=0;left=0;bottom=1;right=0;points=[[0,0.5],[1,0.5]];portConstraint=eastwest;" parent="2c53xwHn9IboJPMbNdfc-121" vertex="1">
          <mxGeometry y="30" width="220" height="30" as="geometry" />
        </mxCell>
        <mxCell id="2c53xwHn9IboJPMbNdfc-123" value="PK" style="shape=partialRectangle;connectable=0;fillColor=none;top=0;left=0;bottom=0;right=0;fontStyle=1;overflow=hidden;" parent="2c53xwHn9IboJPMbNdfc-122" vertex="1">
          <mxGeometry width="30" height="30" as="geometry" />
        </mxCell>
        <mxCell id="2c53xwHn9IboJPMbNdfc-124" value="UniqueID" style="shape=partialRectangle;connectable=0;fillColor=none;top=0;left=0;bottom=0;right=0;align=left;spacingLeft=6;fontStyle=5;overflow=hidden;" parent="2c53xwHn9IboJPMbNdfc-122" vertex="1">
          <mxGeometry x="30" width="190" height="30" as="geometry" />
        </mxCell>
        <mxCell id="2c53xwHn9IboJPMbNdfc-125" value="" style="shape=partialRectangle;collapsible=0;dropTarget=0;pointerEvents=0;fillColor=none;top=0;left=0;bottom=0;right=0;points=[[0,0.5],[1,0.5]];portConstraint=eastwest;" parent="2c53xwHn9IboJPMbNdfc-121" vertex="1">
          <mxGeometry y="60" width="220" height="30" as="geometry" />
        </mxCell>
        <mxCell id="2c53xwHn9IboJPMbNdfc-126" value="" style="shape=partialRectangle;connectable=0;fillColor=none;top=0;left=0;bottom=0;right=0;editable=1;overflow=hidden;" parent="2c53xwHn9IboJPMbNdfc-125" vertex="1">
          <mxGeometry width="30" height="30" as="geometry" />
        </mxCell>
        <mxCell id="2c53xwHn9IboJPMbNdfc-127" value="bank_name char(50) NOT NULL" style="shape=partialRectangle;connectable=0;fillColor=none;top=0;left=0;bottom=0;right=0;align=left;spacingLeft=6;overflow=hidden;" parent="2c53xwHn9IboJPMbNdfc-125" vertex="1">
          <mxGeometry x="30" width="190" height="30" as="geometry" />
        </mxCell>
        <mxCell id="2c53xwHn9IboJPMbNdfc-128" value="" style="shape=partialRectangle;collapsible=0;dropTarget=0;pointerEvents=0;fillColor=none;top=0;left=0;bottom=0;right=0;points=[[0,0.5],[1,0.5]];portConstraint=eastwest;" parent="2c53xwHn9IboJPMbNdfc-121" vertex="1">
          <mxGeometry y="90" width="220" height="30" as="geometry" />
        </mxCell>
        <mxCell id="2c53xwHn9IboJPMbNdfc-129" value="" style="shape=partialRectangle;connectable=0;fillColor=none;top=0;left=0;bottom=0;right=0;editable=1;overflow=hidden;" parent="2c53xwHn9IboJPMbNdfc-128" vertex="1">
          <mxGeometry width="30" height="30" as="geometry" />
        </mxCell>
        <mxCell id="2c53xwHn9IboJPMbNdfc-130" value="account_no int NOT NULL" style="shape=partialRectangle;connectable=0;fillColor=none;top=0;left=0;bottom=0;right=0;align=left;spacingLeft=6;overflow=hidden;" parent="2c53xwHn9IboJPMbNdfc-128" vertex="1">
          <mxGeometry x="30" width="190" height="30" as="geometry" />
        </mxCell>
        <mxCell id="2c53xwHn9IboJPMbNdfc-131" value="" style="shape=partialRectangle;collapsible=0;dropTarget=0;pointerEvents=0;fillColor=none;top=0;left=0;bottom=0;right=0;points=[[0,0.5],[1,0.5]];portConstraint=eastwest;" parent="2c53xwHn9IboJPMbNdfc-121" vertex="1">
          <mxGeometry y="120" width="220" height="30" as="geometry" />
        </mxCell>
        <mxCell id="2c53xwHn9IboJPMbNdfc-132" value="" style="shape=partialRectangle;connectable=0;fillColor=none;top=0;left=0;bottom=0;right=0;editable=1;overflow=hidden;" parent="2c53xwHn9IboJPMbNdfc-131" vertex="1">
          <mxGeometry width="30" height="30" as="geometry" />
        </mxCell>
        <mxCell id="2c53xwHn9IboJPMbNdfc-133" value="Row 3" style="shape=partialRectangle;connectable=0;fillColor=none;top=0;left=0;bottom=0;right=0;align=left;spacingLeft=6;overflow=hidden;" parent="2c53xwHn9IboJPMbNdfc-131" vertex="1">
          <mxGeometry x="30" width="190" height="30" as="geometry" />
        </mxCell>
        <mxCell id="2c53xwHn9IboJPMbNdfc-147" value="Merchant" style="shape=table;startSize=30;container=1;collapsible=1;childLayout=tableLayout;fixedRows=1;rowLines=0;fontStyle=1;align=center;resizeLast=1;html=1;" parent="1" vertex="1">
          <mxGeometry x="890" y="120" width="180" height="160" as="geometry" />
        </mxCell>
        <mxCell id="2c53xwHn9IboJPMbNdfc-148" value="" style="shape=partialRectangle;collapsible=0;dropTarget=0;pointerEvents=0;fillColor=none;top=0;left=0;bottom=1;right=0;points=[[0,0.5],[1,0.5]];portConstraint=eastwest;" parent="2c53xwHn9IboJPMbNdfc-147" vertex="1">
          <mxGeometry y="30" width="180" height="30" as="geometry" />
        </mxCell>
        <mxCell id="2c53xwHn9IboJPMbNdfc-149" value="PK" style="shape=partialRectangle;connectable=0;fillColor=none;top=0;left=0;bottom=0;right=0;fontStyle=1;overflow=hidden;" parent="2c53xwHn9IboJPMbNdfc-148" vertex="1">
          <mxGeometry width="30" height="30" as="geometry" />
        </mxCell>
        <mxCell id="2c53xwHn9IboJPMbNdfc-150" value="merchant_id" style="shape=partialRectangle;connectable=0;fillColor=none;top=0;left=0;bottom=0;right=0;align=left;spacingLeft=6;fontStyle=5;overflow=hidden;" parent="2c53xwHn9IboJPMbNdfc-148" vertex="1">
          <mxGeometry x="30" width="150" height="30" as="geometry" />
        </mxCell>
        <mxCell id="2c53xwHn9IboJPMbNdfc-151" value="" style="shape=partialRectangle;collapsible=0;dropTarget=0;pointerEvents=0;fillColor=none;top=0;left=0;bottom=0;right=0;points=[[0,0.5],[1,0.5]];portConstraint=eastwest;" parent="2c53xwHn9IboJPMbNdfc-147" vertex="1">
          <mxGeometry y="60" width="180" height="30" as="geometry" />
        </mxCell>
        <mxCell id="2c53xwHn9IboJPMbNdfc-152" value="" style="shape=partialRectangle;connectable=0;fillColor=none;top=0;left=0;bottom=0;right=0;editable=1;overflow=hidden;" parent="2c53xwHn9IboJPMbNdfc-151" vertex="1">
          <mxGeometry width="30" height="30" as="geometry" />
        </mxCell>
        <mxCell id="2c53xwHn9IboJPMbNdfc-153" value="UEN" style="shape=partialRectangle;connectable=0;fillColor=none;top=0;left=0;bottom=0;right=0;align=left;spacingLeft=6;overflow=hidden;" parent="2c53xwHn9IboJPMbNdfc-151" vertex="1">
          <mxGeometry x="30" width="150" height="30" as="geometry" />
        </mxCell>
        <mxCell id="2c53xwHn9IboJPMbNdfc-154" value="" style="shape=partialRectangle;collapsible=0;dropTarget=0;pointerEvents=0;fillColor=none;top=0;left=0;bottom=0;right=0;points=[[0,0.5],[1,0.5]];portConstraint=eastwest;" parent="2c53xwHn9IboJPMbNdfc-147" vertex="1">
          <mxGeometry y="90" width="180" height="30" as="geometry" />
        </mxCell>
        <mxCell id="2c53xwHn9IboJPMbNdfc-155" value="" style="shape=partialRectangle;connectable=0;fillColor=none;top=0;left=0;bottom=0;right=0;editable=1;overflow=hidden;" parent="2c53xwHn9IboJPMbNdfc-154" vertex="1">
          <mxGeometry width="30" height="30" as="geometry" />
        </mxCell>
        <mxCell id="2c53xwHn9IboJPMbNdfc-156" value="Row 2" style="shape=partialRectangle;connectable=0;fillColor=none;top=0;left=0;bottom=0;right=0;align=left;spacingLeft=6;overflow=hidden;" parent="2c53xwHn9IboJPMbNdfc-154" vertex="1">
          <mxGeometry x="30" width="150" height="30" as="geometry" />
        </mxCell>
        <mxCell id="2c53xwHn9IboJPMbNdfc-157" value="" style="shape=partialRectangle;collapsible=0;dropTarget=0;pointerEvents=0;fillColor=none;top=0;left=0;bottom=0;right=0;points=[[0,0.5],[1,0.5]];portConstraint=eastwest;" parent="2c53xwHn9IboJPMbNdfc-147" vertex="1">
          <mxGeometry y="120" width="180" height="30" as="geometry" />
        </mxCell>
        <mxCell id="2c53xwHn9IboJPMbNdfc-158" value="" style="shape=partialRectangle;connectable=0;fillColor=none;top=0;left=0;bottom=0;right=0;editable=1;overflow=hidden;" parent="2c53xwHn9IboJPMbNdfc-157" vertex="1">
          <mxGeometry width="30" height="30" as="geometry" />
        </mxCell>
        <mxCell id="2c53xwHn9IboJPMbNdfc-159" value="Row 3" style="shape=partialRectangle;connectable=0;fillColor=none;top=0;left=0;bottom=0;right=0;align=left;spacingLeft=6;overflow=hidden;" parent="2c53xwHn9IboJPMbNdfc-157" vertex="1">
          <mxGeometry x="30" width="150" height="30" as="geometry" />
        </mxCell>
        <mxCell id="N2lpxfCJUYB1sRcF9Xbd-19" value="Client_Bank" style="shape=table;startSize=30;container=1;collapsible=1;childLayout=tableLayout;fixedRows=1;rowLines=0;fontStyle=1;align=center;resizeLast=1;html=1;" vertex="1" parent="1">
          <mxGeometry x="472.5" y="1020" width="225" height="150" as="geometry" />
        </mxCell>
        <mxCell id="N2lpxfCJUYB1sRcF9Xbd-20" value="" style="shape=partialRectangle;collapsible=0;dropTarget=0;pointerEvents=0;fillColor=none;top=0;left=0;bottom=1;right=0;points=[[0,0.5],[1,0.5]];portConstraint=eastwest;" vertex="1" parent="N2lpxfCJUYB1sRcF9Xbd-19">
          <mxGeometry y="30" width="225" height="30" as="geometry" />
        </mxCell>
        <mxCell id="N2lpxfCJUYB1sRcF9Xbd-21" value="PK" style="shape=partialRectangle;connectable=0;fillColor=none;top=0;left=0;bottom=0;right=0;fontStyle=1;overflow=hidden;" vertex="1" parent="N2lpxfCJUYB1sRcF9Xbd-20">
          <mxGeometry width="30" height="30" as="geometry" />
        </mxCell>
        <mxCell id="N2lpxfCJUYB1sRcF9Xbd-22" value="UniqueID" style="shape=partialRectangle;connectable=0;fillColor=none;top=0;left=0;bottom=0;right=0;align=left;spacingLeft=6;fontStyle=5;overflow=hidden;" vertex="1" parent="N2lpxfCJUYB1sRcF9Xbd-20">
          <mxGeometry x="30" width="195" height="30" as="geometry" />
        </mxCell>
        <mxCell id="N2lpxfCJUYB1sRcF9Xbd-23" value="" style="shape=partialRectangle;collapsible=0;dropTarget=0;pointerEvents=0;fillColor=none;top=0;left=0;bottom=0;right=0;points=[[0,0.5],[1,0.5]];portConstraint=eastwest;" vertex="1" parent="N2lpxfCJUYB1sRcF9Xbd-19">
          <mxGeometry y="60" width="225" height="30" as="geometry" />
        </mxCell>
        <mxCell id="N2lpxfCJUYB1sRcF9Xbd-24" value="FK1" style="shape=partialRectangle;connectable=0;fillColor=none;top=0;left=0;bottom=0;right=0;editable=1;overflow=hidden;" vertex="1" parent="N2lpxfCJUYB1sRcF9Xbd-23">
          <mxGeometry width="30" height="30" as="geometry" />
        </mxCell>
        <mxCell id="N2lpxfCJUYB1sRcF9Xbd-25" value="client_id int not NULL" style="shape=partialRectangle;connectable=0;fillColor=none;top=0;left=0;bottom=0;right=0;align=left;spacingLeft=6;overflow=hidden;" vertex="1" parent="N2lpxfCJUYB1sRcF9Xbd-23">
          <mxGeometry x="30" width="195" height="30" as="geometry" />
        </mxCell>
        <mxCell id="N2lpxfCJUYB1sRcF9Xbd-26" value="" style="shape=partialRectangle;collapsible=0;dropTarget=0;pointerEvents=0;fillColor=none;top=0;left=0;bottom=0;right=0;points=[[0,0.5],[1,0.5]];portConstraint=eastwest;" vertex="1" parent="N2lpxfCJUYB1sRcF9Xbd-19">
          <mxGeometry y="90" width="225" height="30" as="geometry" />
        </mxCell>
        <mxCell id="N2lpxfCJUYB1sRcF9Xbd-27" value="FK2" style="shape=partialRectangle;connectable=0;fillColor=none;top=0;left=0;bottom=0;right=0;editable=1;overflow=hidden;" vertex="1" parent="N2lpxfCJUYB1sRcF9Xbd-26">
          <mxGeometry width="30" height="30" as="geometry" />
        </mxCell>
        <mxCell id="N2lpxfCJUYB1sRcF9Xbd-28" value="bank_account int NOT NULL" style="shape=partialRectangle;connectable=0;fillColor=none;top=0;left=0;bottom=0;right=0;align=left;spacingLeft=6;overflow=hidden;" vertex="1" parent="N2lpxfCJUYB1sRcF9Xbd-26">
          <mxGeometry x="30" width="195" height="30" as="geometry" />
        </mxCell>
        <mxCell id="N2lpxfCJUYB1sRcF9Xbd-29" value="" style="shape=partialRectangle;collapsible=0;dropTarget=0;pointerEvents=0;fillColor=none;top=0;left=0;bottom=0;right=0;points=[[0,0.5],[1,0.5]];portConstraint=eastwest;" vertex="1" parent="N2lpxfCJUYB1sRcF9Xbd-19">
          <mxGeometry y="120" width="225" height="30" as="geometry" />
        </mxCell>
        <mxCell id="N2lpxfCJUYB1sRcF9Xbd-30" value="" style="shape=partialRectangle;connectable=0;fillColor=none;top=0;left=0;bottom=0;right=0;editable=1;overflow=hidden;" vertex="1" parent="N2lpxfCJUYB1sRcF9Xbd-29">
          <mxGeometry width="30" height="30" as="geometry" />
        </mxCell>
        <mxCell id="N2lpxfCJUYB1sRcF9Xbd-31" value="Active char(50)" style="shape=partialRectangle;connectable=0;fillColor=none;top=0;left=0;bottom=0;right=0;align=left;spacingLeft=6;overflow=hidden;" vertex="1" parent="N2lpxfCJUYB1sRcF9Xbd-29">
          <mxGeometry x="30" width="195" height="30" as="geometry" />
        </mxCell>
        <mxCell id="N2lpxfCJUYB1sRcF9Xbd-48" value="" style="edgeStyle=entityRelationEdgeStyle;fontSize=12;html=1;endArrow=ERzeroToMany;startArrow=ERmandOne;exitX=1;exitY=0.5;exitDx=0;exitDy=0;" edge="1" parent="1" source="2c53xwHn9IboJPMbNdfc-49" target="2c53xwHn9IboJPMbNdfc-102">
          <mxGeometry width="100" height="100" relative="1" as="geometry">
            <mxPoint x="530" y="610" as="sourcePoint" />
            <mxPoint x="490" y="415" as="targetPoint" />
          </mxGeometry>
        </mxCell>
        <mxCell id="N2lpxfCJUYB1sRcF9Xbd-49" value="" style="edgeStyle=entityRelationEdgeStyle;fontSize=12;html=1;endArrow=ERzeroToMany;startArrow=ERmandOne;exitX=1;exitY=0.5;exitDx=0;exitDy=0;" edge="1" parent="1" source="2c53xwHn9IboJPMbNdfc-2" target="2c53xwHn9IboJPMbNdfc-99">
          <mxGeometry width="100" height="100" relative="1" as="geometry">
            <mxPoint x="310" y="470" as="sourcePoint" />
            <mxPoint x="490" y="380" as="targetPoint" />
          </mxGeometry>
        </mxCell>
        <mxCell id="N2lpxfCJUYB1sRcF9Xbd-50" value="" style="edgeStyle=entityRelationEdgeStyle;fontSize=12;html=1;endArrow=ERzeroToMany;startArrow=ERmandOne;entryX=0;entryY=0.5;entryDx=0;entryDy=0;" edge="1" parent="1" source="2c53xwHn9IboJPMbNdfc-36" target="2c53xwHn9IboJPMbNdfc-89">
          <mxGeometry width="100" height="100" relative="1" as="geometry">
            <mxPoint x="380" y="355" as="sourcePoint" />
            <mxPoint x="500" y="395" as="targetPoint" />
          </mxGeometry>
        </mxCell>
        <mxCell id="N2lpxfCJUYB1sRcF9Xbd-51" value="" style="edgeStyle=entityRelationEdgeStyle;fontSize=12;html=1;endArrow=ERzeroToMany;startArrow=ERmandOne;" edge="1" parent="1" source="2c53xwHn9IboJPMbNdfc-2" target="2c53xwHn9IboJPMbNdfc-86">
          <mxGeometry width="100" height="100" relative="1" as="geometry">
            <mxPoint x="380" y="510" as="sourcePoint" />
            <mxPoint x="500" y="550" as="targetPoint" />
          </mxGeometry>
        </mxCell>
        <mxCell id="N2lpxfCJUYB1sRcF9Xbd-52" value="" style="edgeStyle=entityRelationEdgeStyle;fontSize=12;html=1;endArrow=ERzeroToMany;startArrow=ERmandOne;" edge="1" parent="1" source="2c53xwHn9IboJPMbNdfc-2" target="2c53xwHn9IboJPMbNdfc-112">
          <mxGeometry width="100" height="100" relative="1" as="geometry">
            <mxPoint x="310" y="515" as="sourcePoint" />
            <mxPoint x="490" y="585" as="targetPoint" />
          </mxGeometry>
        </mxCell>
        <mxCell id="N2lpxfCJUYB1sRcF9Xbd-53" value="" style="edgeStyle=entityRelationEdgeStyle;fontSize=12;html=1;endArrow=ERzeroToMany;startArrow=ERmandOne;" edge="1" parent="1" source="2c53xwHn9IboJPMbNdfc-70" target="2c53xwHn9IboJPMbNdfc-115">
          <mxGeometry width="100" height="100" relative="1" as="geometry">
            <mxPoint x="320" y="525" as="sourcePoint" />
            <mxPoint x="500" y="595" as="targetPoint" />
          </mxGeometry>
        </mxCell>
        <mxCell id="N2lpxfCJUYB1sRcF9Xbd-54" value="" style="edgeStyle=entityRelationEdgeStyle;fontSize=12;html=1;endArrow=ERzeroToMany;startArrow=ERmandOne;" edge="1" parent="1" source="2c53xwHn9IboJPMbNdfc-2" target="N2lpxfCJUYB1sRcF9Xbd-23">
          <mxGeometry width="100" height="100" relative="1" as="geometry">
            <mxPoint x="560" y="940" as="sourcePoint" />
            <mxPoint x="660" y="840" as="targetPoint" />
          </mxGeometry>
        </mxCell>
        <mxCell id="N2lpxfCJUYB1sRcF9Xbd-55" value="" style="edgeStyle=entityRelationEdgeStyle;fontSize=12;html=1;endArrow=ERzeroToMany;startArrow=ERmandOne;" edge="1" parent="1" source="2c53xwHn9IboJPMbNdfc-122" target="N2lpxfCJUYB1sRcF9Xbd-26">
          <mxGeometry width="100" height="100" relative="1" as="geometry">
            <mxPoint x="560" y="1010" as="sourcePoint" />
            <mxPoint x="660" y="910" as="targetPoint" />
          </mxGeometry>
        </mxCell>
        <mxCell id="N2lpxfCJUYB1sRcF9Xbd-60" value="" style="group" vertex="1" connectable="0" parent="1">
          <mxGeometry x="120" y="830" width="180" height="190" as="geometry" />
        </mxCell>
        <mxCell id="2c53xwHn9IboJPMbNdfc-69" value="owner" style="shape=table;startSize=30;container=1;collapsible=1;childLayout=tableLayout;fixedRows=1;rowLines=0;fontStyle=1;align=center;resizeLast=1;html=1;" parent="N2lpxfCJUYB1sRcF9Xbd-60" vertex="1">
          <mxGeometry width="180" height="190" as="geometry" />
        </mxCell>
        <mxCell id="2c53xwHn9IboJPMbNdfc-70" value="" style="shape=partialRectangle;collapsible=0;dropTarget=0;pointerEvents=0;fillColor=none;top=0;left=0;bottom=1;right=0;points=[[0,0.5],[1,0.5]];portConstraint=eastwest;" parent="2c53xwHn9IboJPMbNdfc-69" vertex="1">
          <mxGeometry y="30" width="180" height="30" as="geometry" />
        </mxCell>
        <mxCell id="2c53xwHn9IboJPMbNdfc-71" value="PK" style="shape=partialRectangle;connectable=0;fillColor=none;top=0;left=0;bottom=0;right=0;fontStyle=1;overflow=hidden;" parent="2c53xwHn9IboJPMbNdfc-70" vertex="1">
          <mxGeometry width="30" height="30" as="geometry" />
        </mxCell>
        <mxCell id="2c53xwHn9IboJPMbNdfc-72" value="owner_id" style="shape=partialRectangle;connectable=0;fillColor=none;top=0;left=0;bottom=0;right=0;align=left;spacingLeft=6;fontStyle=5;overflow=hidden;" parent="2c53xwHn9IboJPMbNdfc-70" vertex="1">
          <mxGeometry x="30" width="150" height="30" as="geometry" />
        </mxCell>
        <mxCell id="2c53xwHn9IboJPMbNdfc-73" value="" style="shape=partialRectangle;collapsible=0;dropTarget=0;pointerEvents=0;fillColor=none;top=0;left=0;bottom=0;right=0;points=[[0,0.5],[1,0.5]];portConstraint=eastwest;" parent="2c53xwHn9IboJPMbNdfc-69" vertex="1">
          <mxGeometry y="60" width="180" height="30" as="geometry" />
        </mxCell>
        <mxCell id="2c53xwHn9IboJPMbNdfc-74" value="" style="shape=partialRectangle;connectable=0;fillColor=none;top=0;left=0;bottom=0;right=0;editable=1;overflow=hidden;" parent="2c53xwHn9IboJPMbNdfc-73" vertex="1">
          <mxGeometry width="30" height="30" as="geometry" />
        </mxCell>
        <mxCell id="2c53xwHn9IboJPMbNdfc-75" value="name" style="shape=partialRectangle;connectable=0;fillColor=none;top=0;left=0;bottom=0;right=0;align=left;spacingLeft=6;overflow=hidden;" parent="2c53xwHn9IboJPMbNdfc-73" vertex="1">
          <mxGeometry x="30" width="150" height="30" as="geometry" />
        </mxCell>
        <mxCell id="2c53xwHn9IboJPMbNdfc-76" value="" style="shape=partialRectangle;collapsible=0;dropTarget=0;pointerEvents=0;fillColor=none;top=0;left=0;bottom=0;right=0;points=[[0,0.5],[1,0.5]];portConstraint=eastwest;" parent="2c53xwHn9IboJPMbNdfc-69" vertex="1">
          <mxGeometry y="90" width="180" height="30" as="geometry" />
        </mxCell>
        <mxCell id="2c53xwHn9IboJPMbNdfc-77" value="" style="shape=partialRectangle;connectable=0;fillColor=none;top=0;left=0;bottom=0;right=0;editable=1;overflow=hidden;" parent="2c53xwHn9IboJPMbNdfc-76" vertex="1">
          <mxGeometry width="30" height="30" as="geometry" />
        </mxCell>
        <mxCell id="2c53xwHn9IboJPMbNdfc-78" value="position" style="shape=partialRectangle;connectable=0;fillColor=none;top=0;left=0;bottom=0;right=0;align=left;spacingLeft=6;overflow=hidden;" parent="2c53xwHn9IboJPMbNdfc-76" vertex="1">
          <mxGeometry x="30" width="150" height="30" as="geometry" />
        </mxCell>
        <mxCell id="2c53xwHn9IboJPMbNdfc-79" value="" style="shape=partialRectangle;collapsible=0;dropTarget=0;pointerEvents=0;fillColor=none;top=0;left=0;bottom=0;right=0;points=[[0,0.5],[1,0.5]];portConstraint=eastwest;" parent="2c53xwHn9IboJPMbNdfc-69" vertex="1">
          <mxGeometry y="120" width="180" height="30" as="geometry" />
        </mxCell>
        <mxCell id="2c53xwHn9IboJPMbNdfc-80" value="FK1" style="shape=partialRectangle;connectable=0;fillColor=none;top=0;left=0;bottom=0;right=0;editable=1;overflow=hidden;" parent="2c53xwHn9IboJPMbNdfc-79" vertex="1">
          <mxGeometry width="30" height="30" as="geometry" />
        </mxCell>
        <mxCell id="2c53xwHn9IboJPMbNdfc-81" value="address_id" style="shape=partialRectangle;connectable=0;fillColor=none;top=0;left=0;bottom=0;right=0;align=left;spacingLeft=6;overflow=hidden;" parent="2c53xwHn9IboJPMbNdfc-79" vertex="1">
          <mxGeometry x="30" width="150" height="30" as="geometry" />
        </mxCell>
        <mxCell id="N2lpxfCJUYB1sRcF9Xbd-57" value="" style="shape=partialRectangle;collapsible=0;dropTarget=0;pointerEvents=0;fillColor=none;top=0;left=0;bottom=0;right=0;points=[[0,0.5],[1,0.5]];portConstraint=eastwest;" vertex="1" parent="N2lpxfCJUYB1sRcF9Xbd-60">
          <mxGeometry y="150" width="180" height="30" as="geometry" />
        </mxCell>
        <mxCell id="N2lpxfCJUYB1sRcF9Xbd-58" value="FK2" style="shape=partialRectangle;connectable=0;fillColor=none;top=0;left=0;bottom=0;right=0;editable=1;overflow=hidden;" vertex="1" parent="N2lpxfCJUYB1sRcF9Xbd-57">
          <mxGeometry width="30" height="30" as="geometry" />
        </mxCell>
        <mxCell id="N2lpxfCJUYB1sRcF9Xbd-59" value="contact_id" style="shape=partialRectangle;connectable=0;fillColor=none;top=0;left=0;bottom=0;right=0;align=left;spacingLeft=6;overflow=hidden;" vertex="1" parent="N2lpxfCJUYB1sRcF9Xbd-57">
          <mxGeometry x="30" width="150" height="30" as="geometry" />
        </mxCell>
        <mxCell id="N2lpxfCJUYB1sRcF9Xbd-61" value="" style="edgeStyle=entityRelationEdgeStyle;fontSize=12;html=1;endArrow=ERzeroToMany;startArrow=ERmandOne;" edge="1" parent="1" source="2c53xwHn9IboJPMbNdfc-49" target="2c53xwHn9IboJPMbNdfc-79">
          <mxGeometry width="100" height="100" relative="1" as="geometry">
            <mxPoint x="20" y="600" as="sourcePoint" />
            <mxPoint x="200" y="670" as="targetPoint" />
          </mxGeometry>
        </mxCell>
        <mxCell id="N2lpxfCJUYB1sRcF9Xbd-63" value="" style="edgeStyle=entityRelationEdgeStyle;fontSize=12;html=1;endArrow=ERzeroToMany;startArrow=ERmandOne;" edge="1" parent="1" source="2c53xwHn9IboJPMbNdfc-36" target="N2lpxfCJUYB1sRcF9Xbd-57">
          <mxGeometry width="100" height="100" relative="1" as="geometry">
            <mxPoint x="560" y="910" as="sourcePoint" />
            <mxPoint x="660" y="810" as="targetPoint" />
          </mxGeometry>
        </mxCell>
        <mxCell id="N2lpxfCJUYB1sRcF9Xbd-64" value="&lt;h1&gt;Client Objects&lt;/h1&gt;&lt;p&gt;&lt;br&gt;&lt;/p&gt;" style="text;html=1;strokeColor=none;fillColor=none;spacing=5;spacingTop=-20;whiteSpace=wrap;overflow=hidden;rounded=0;align=center;labelBackgroundColor=none;" vertex="1" parent="1">
          <mxGeometry x="115" y="50" width="635" height="60" as="geometry" />
        </mxCell>
        <mxCell id="N2lpxfCJUYB1sRcF9Xbd-66" value="" style="edgeStyle=entityRelationEdgeStyle;fontSize=12;html=1;endArrow=ERzeroToMany;startArrow=ERmandOne;" edge="1" parent="1" source="2c53xwHn9IboJPMbNdfc-2" target="C-vyLk0tnHw3VtMMgP7b-27">
          <mxGeometry width="100" height="100" relative="1" as="geometry">
            <mxPoint x="560" y="410" as="sourcePoint" />
            <mxPoint x="660" y="310" as="targetPoint" />
          </mxGeometry>
        </mxCell>
        <mxCell id="N2lpxfCJUYB1sRcF9Xbd-67" value="Merchant_Address" style="shape=table;startSize=30;container=1;collapsible=1;childLayout=tableLayout;fixedRows=1;rowLines=0;fontStyle=1;align=center;resizeLast=1;html=1;" vertex="1" parent="1">
          <mxGeometry x="890" y="300" width="180" height="150" as="geometry" />
        </mxCell>
        <mxCell id="N2lpxfCJUYB1sRcF9Xbd-68" value="" style="shape=partialRectangle;collapsible=0;dropTarget=0;pointerEvents=0;fillColor=none;top=0;left=0;bottom=1;right=0;points=[[0,0.5],[1,0.5]];portConstraint=eastwest;" vertex="1" parent="N2lpxfCJUYB1sRcF9Xbd-67">
          <mxGeometry y="30" width="180" height="30" as="geometry" />
        </mxCell>
        <mxCell id="N2lpxfCJUYB1sRcF9Xbd-69" value="PK" style="shape=partialRectangle;connectable=0;fillColor=none;top=0;left=0;bottom=0;right=0;fontStyle=1;overflow=hidden;" vertex="1" parent="N2lpxfCJUYB1sRcF9Xbd-68">
          <mxGeometry width="30" height="30" as="geometry" />
        </mxCell>
        <mxCell id="N2lpxfCJUYB1sRcF9Xbd-70" value="UniqueID" style="shape=partialRectangle;connectable=0;fillColor=none;top=0;left=0;bottom=0;right=0;align=left;spacingLeft=6;fontStyle=5;overflow=hidden;" vertex="1" parent="N2lpxfCJUYB1sRcF9Xbd-68">
          <mxGeometry x="30" width="150" height="30" as="geometry" />
        </mxCell>
        <mxCell id="N2lpxfCJUYB1sRcF9Xbd-71" value="" style="shape=partialRectangle;collapsible=0;dropTarget=0;pointerEvents=0;fillColor=none;top=0;left=0;bottom=0;right=0;points=[[0,0.5],[1,0.5]];portConstraint=eastwest;" vertex="1" parent="N2lpxfCJUYB1sRcF9Xbd-67">
          <mxGeometry y="60" width="180" height="30" as="geometry" />
        </mxCell>
        <mxCell id="N2lpxfCJUYB1sRcF9Xbd-72" value="FK1" style="shape=partialRectangle;connectable=0;fillColor=none;top=0;left=0;bottom=0;right=0;editable=1;overflow=hidden;" vertex="1" parent="N2lpxfCJUYB1sRcF9Xbd-71">
          <mxGeometry width="30" height="30" as="geometry" />
        </mxCell>
        <mxCell id="N2lpxfCJUYB1sRcF9Xbd-73" value="merchant_id int not NULL" style="shape=partialRectangle;connectable=0;fillColor=none;top=0;left=0;bottom=0;right=0;align=left;spacingLeft=6;overflow=hidden;" vertex="1" parent="N2lpxfCJUYB1sRcF9Xbd-71">
          <mxGeometry x="30" width="150" height="30" as="geometry" />
        </mxCell>
        <mxCell id="N2lpxfCJUYB1sRcF9Xbd-74" value="" style="shape=partialRectangle;collapsible=0;dropTarget=0;pointerEvents=0;fillColor=none;top=0;left=0;bottom=0;right=0;points=[[0,0.5],[1,0.5]];portConstraint=eastwest;" vertex="1" parent="N2lpxfCJUYB1sRcF9Xbd-67">
          <mxGeometry y="90" width="180" height="30" as="geometry" />
        </mxCell>
        <mxCell id="N2lpxfCJUYB1sRcF9Xbd-75" value="FK2" style="shape=partialRectangle;connectable=0;fillColor=none;top=0;left=0;bottom=0;right=0;editable=1;overflow=hidden;" vertex="1" parent="N2lpxfCJUYB1sRcF9Xbd-74">
          <mxGeometry width="30" height="30" as="geometry" />
        </mxCell>
        <mxCell id="N2lpxfCJUYB1sRcF9Xbd-76" value="address_if int NOT NULL&#xa;" style="shape=partialRectangle;connectable=0;fillColor=none;top=0;left=0;bottom=0;right=0;align=left;spacingLeft=6;overflow=hidden;" vertex="1" parent="N2lpxfCJUYB1sRcF9Xbd-74">
          <mxGeometry x="30" width="150" height="30" as="geometry" />
        </mxCell>
        <mxCell id="N2lpxfCJUYB1sRcF9Xbd-77" value="" style="shape=partialRectangle;collapsible=0;dropTarget=0;pointerEvents=0;fillColor=none;top=0;left=0;bottom=0;right=0;points=[[0,0.5],[1,0.5]];portConstraint=eastwest;" vertex="1" parent="N2lpxfCJUYB1sRcF9Xbd-67">
          <mxGeometry y="120" width="180" height="30" as="geometry" />
        </mxCell>
        <mxCell id="N2lpxfCJUYB1sRcF9Xbd-78" value="" style="shape=partialRectangle;connectable=0;fillColor=none;top=0;left=0;bottom=0;right=0;editable=1;overflow=hidden;" vertex="1" parent="N2lpxfCJUYB1sRcF9Xbd-77">
          <mxGeometry width="30" height="30" as="geometry" />
        </mxCell>
        <mxCell id="N2lpxfCJUYB1sRcF9Xbd-79" value="" style="shape=partialRectangle;connectable=0;fillColor=none;top=0;left=0;bottom=0;right=0;align=left;spacingLeft=6;overflow=hidden;" vertex="1" parent="N2lpxfCJUYB1sRcF9Xbd-77">
          <mxGeometry x="30" width="150" height="30" as="geometry" />
        </mxCell>
        <mxCell id="N2lpxfCJUYB1sRcF9Xbd-97" value="" style="edgeStyle=entityRelationEdgeStyle;fontSize=12;html=1;endArrow=ERzeroToMany;startArrow=ERmandOne;" edge="1" parent="1" source="C-vyLk0tnHw3VtMMgP7b-27" target="C-vyLk0tnHw3VtMMgP7b-6">
          <mxGeometry width="100" height="100" relative="1" as="geometry">
            <mxPoint x="760" y="480" as="sourcePoint" />
            <mxPoint x="860" y="380" as="targetPoint" />
          </mxGeometry>
        </mxCell>
        <mxCell id="N2lpxfCJUYB1sRcF9Xbd-98" value="" style="edgeStyle=entityRelationEdgeStyle;fontSize=12;html=1;endArrow=ERzeroToMany;startArrow=ERmandOne;" edge="1" parent="1" source="2c53xwHn9IboJPMbNdfc-148" target="N2lpxfCJUYB1sRcF9Xbd-81">
          <mxGeometry width="100" height="100" relative="1" as="geometry">
            <mxPoint x="760" y="480" as="sourcePoint" />
            <mxPoint x="860" y="380" as="targetPoint" />
          </mxGeometry>
        </mxCell>
        <mxCell id="N2lpxfCJUYB1sRcF9Xbd-99" value="" style="edgeStyle=entityRelationEdgeStyle;fontSize=12;html=1;endArrow=ERzeroToMany;startArrow=ERmandOne;" edge="1" parent="1" source="2c53xwHn9IboJPMbNdfc-49" target="N2lpxfCJUYB1sRcF9Xbd-74">
          <mxGeometry width="100" height="100" relative="1" as="geometry">
            <mxPoint x="760" y="480" as="sourcePoint" />
            <mxPoint x="860" y="380" as="targetPoint" />
          </mxGeometry>
        </mxCell>
        <mxCell id="N2lpxfCJUYB1sRcF9Xbd-100" value="" style="edgeStyle=entityRelationEdgeStyle;fontSize=12;html=1;endArrow=ERzeroToMany;startArrow=ERmandOne;" edge="1" parent="1" source="2c53xwHn9IboJPMbNdfc-148" target="N2lpxfCJUYB1sRcF9Xbd-71">
          <mxGeometry width="100" height="100" relative="1" as="geometry">
            <mxPoint x="760" y="480" as="sourcePoint" />
            <mxPoint x="860" y="380" as="targetPoint" />
          </mxGeometry>
        </mxCell>
        <mxCell id="N2lpxfCJUYB1sRcF9Xbd-101" value="Merchant_Contacts" style="shape=table;startSize=30;container=1;collapsible=1;childLayout=tableLayout;fixedRows=1;rowLines=0;fontStyle=1;align=center;resizeLast=1;html=1;" vertex="1" parent="1">
          <mxGeometry x="890" y="490" width="180" height="150" as="geometry" />
        </mxCell>
        <mxCell id="N2lpxfCJUYB1sRcF9Xbd-102" value="" style="shape=partialRectangle;collapsible=0;dropTarget=0;pointerEvents=0;fillColor=none;top=0;left=0;bottom=1;right=0;points=[[0,0.5],[1,0.5]];portConstraint=eastwest;" vertex="1" parent="N2lpxfCJUYB1sRcF9Xbd-101">
          <mxGeometry y="30" width="180" height="30" as="geometry" />
        </mxCell>
        <mxCell id="N2lpxfCJUYB1sRcF9Xbd-103" value="PK" style="shape=partialRectangle;connectable=0;fillColor=none;top=0;left=0;bottom=0;right=0;fontStyle=1;overflow=hidden;" vertex="1" parent="N2lpxfCJUYB1sRcF9Xbd-102">
          <mxGeometry width="30" height="30" as="geometry" />
        </mxCell>
        <mxCell id="N2lpxfCJUYB1sRcF9Xbd-104" value="UniqueID" style="shape=partialRectangle;connectable=0;fillColor=none;top=0;left=0;bottom=0;right=0;align=left;spacingLeft=6;fontStyle=5;overflow=hidden;" vertex="1" parent="N2lpxfCJUYB1sRcF9Xbd-102">
          <mxGeometry x="30" width="150" height="30" as="geometry" />
        </mxCell>
        <mxCell id="N2lpxfCJUYB1sRcF9Xbd-105" value="" style="shape=partialRectangle;collapsible=0;dropTarget=0;pointerEvents=0;fillColor=none;top=0;left=0;bottom=0;right=0;points=[[0,0.5],[1,0.5]];portConstraint=eastwest;" vertex="1" parent="N2lpxfCJUYB1sRcF9Xbd-101">
          <mxGeometry y="60" width="180" height="30" as="geometry" />
        </mxCell>
        <mxCell id="N2lpxfCJUYB1sRcF9Xbd-106" value="FK1" style="shape=partialRectangle;connectable=0;fillColor=none;top=0;left=0;bottom=0;right=0;editable=1;overflow=hidden;" vertex="1" parent="N2lpxfCJUYB1sRcF9Xbd-105">
          <mxGeometry width="30" height="30" as="geometry" />
        </mxCell>
        <mxCell id="N2lpxfCJUYB1sRcF9Xbd-107" value="merchant_id int NOT NULL" style="shape=partialRectangle;connectable=0;fillColor=none;top=0;left=0;bottom=0;right=0;align=left;spacingLeft=6;overflow=hidden;" vertex="1" parent="N2lpxfCJUYB1sRcF9Xbd-105">
          <mxGeometry x="30" width="150" height="30" as="geometry" />
        </mxCell>
        <mxCell id="N2lpxfCJUYB1sRcF9Xbd-108" value="" style="shape=partialRectangle;collapsible=0;dropTarget=0;pointerEvents=0;fillColor=none;top=0;left=0;bottom=0;right=0;points=[[0,0.5],[1,0.5]];portConstraint=eastwest;" vertex="1" parent="N2lpxfCJUYB1sRcF9Xbd-101">
          <mxGeometry y="90" width="180" height="30" as="geometry" />
        </mxCell>
        <mxCell id="N2lpxfCJUYB1sRcF9Xbd-109" value="FK2" style="shape=partialRectangle;connectable=0;fillColor=none;top=0;left=0;bottom=0;right=0;editable=1;overflow=hidden;" vertex="1" parent="N2lpxfCJUYB1sRcF9Xbd-108">
          <mxGeometry width="30" height="30" as="geometry" />
        </mxCell>
        <mxCell id="N2lpxfCJUYB1sRcF9Xbd-110" value="contact_id int NOT NULL" style="shape=partialRectangle;connectable=0;fillColor=none;top=0;left=0;bottom=0;right=0;align=left;spacingLeft=6;overflow=hidden;" vertex="1" parent="N2lpxfCJUYB1sRcF9Xbd-108">
          <mxGeometry x="30" width="150" height="30" as="geometry" />
        </mxCell>
        <mxCell id="N2lpxfCJUYB1sRcF9Xbd-111" value="" style="shape=partialRectangle;collapsible=0;dropTarget=0;pointerEvents=0;fillColor=none;top=0;left=0;bottom=0;right=0;points=[[0,0.5],[1,0.5]];portConstraint=eastwest;" vertex="1" parent="N2lpxfCJUYB1sRcF9Xbd-101">
          <mxGeometry y="120" width="180" height="30" as="geometry" />
        </mxCell>
        <mxCell id="N2lpxfCJUYB1sRcF9Xbd-112" value="" style="shape=partialRectangle;connectable=0;fillColor=none;top=0;left=0;bottom=0;right=0;editable=1;overflow=hidden;" vertex="1" parent="N2lpxfCJUYB1sRcF9Xbd-111">
          <mxGeometry width="30" height="30" as="geometry" />
        </mxCell>
        <mxCell id="N2lpxfCJUYB1sRcF9Xbd-113" value="" style="shape=partialRectangle;connectable=0;fillColor=none;top=0;left=0;bottom=0;right=0;align=left;spacingLeft=6;overflow=hidden;" vertex="1" parent="N2lpxfCJUYB1sRcF9Xbd-111">
          <mxGeometry x="30" width="150" height="30" as="geometry" />
        </mxCell>
        <mxCell id="N2lpxfCJUYB1sRcF9Xbd-114" value="Merchant_Owner" style="shape=table;startSize=30;container=1;collapsible=1;childLayout=tableLayout;fixedRows=1;rowLines=0;fontStyle=1;align=center;resizeLast=1;html=1;" vertex="1" parent="1">
          <mxGeometry x="890" y="690" width="195" height="160" as="geometry" />
        </mxCell>
        <mxCell id="N2lpxfCJUYB1sRcF9Xbd-115" value="" style="shape=partialRectangle;collapsible=0;dropTarget=0;pointerEvents=0;fillColor=none;top=0;left=0;bottom=1;right=0;points=[[0,0.5],[1,0.5]];portConstraint=eastwest;" vertex="1" parent="N2lpxfCJUYB1sRcF9Xbd-114">
          <mxGeometry y="30" width="195" height="30" as="geometry" />
        </mxCell>
        <mxCell id="N2lpxfCJUYB1sRcF9Xbd-116" value="PK" style="shape=partialRectangle;connectable=0;fillColor=none;top=0;left=0;bottom=0;right=0;fontStyle=1;overflow=hidden;" vertex="1" parent="N2lpxfCJUYB1sRcF9Xbd-115">
          <mxGeometry width="30" height="30" as="geometry" />
        </mxCell>
        <mxCell id="N2lpxfCJUYB1sRcF9Xbd-117" value="UniqueID int NOT NULL" style="shape=partialRectangle;connectable=0;fillColor=none;top=0;left=0;bottom=0;right=0;align=left;spacingLeft=6;fontStyle=5;overflow=hidden;" vertex="1" parent="N2lpxfCJUYB1sRcF9Xbd-115">
          <mxGeometry x="30" width="165" height="30" as="geometry" />
        </mxCell>
        <mxCell id="N2lpxfCJUYB1sRcF9Xbd-118" value="" style="shape=partialRectangle;collapsible=0;dropTarget=0;pointerEvents=0;fillColor=none;top=0;left=0;bottom=0;right=0;points=[[0,0.5],[1,0.5]];portConstraint=eastwest;" vertex="1" parent="N2lpxfCJUYB1sRcF9Xbd-114">
          <mxGeometry y="60" width="195" height="30" as="geometry" />
        </mxCell>
        <mxCell id="N2lpxfCJUYB1sRcF9Xbd-119" value="FK1" style="shape=partialRectangle;connectable=0;fillColor=none;top=0;left=0;bottom=0;right=0;editable=1;overflow=hidden;" vertex="1" parent="N2lpxfCJUYB1sRcF9Xbd-118">
          <mxGeometry width="30" height="30" as="geometry" />
        </mxCell>
        <mxCell id="N2lpxfCJUYB1sRcF9Xbd-120" value="merchant_id int not NULL" style="shape=partialRectangle;connectable=0;fillColor=none;top=0;left=0;bottom=0;right=0;align=left;spacingLeft=6;overflow=hidden;" vertex="1" parent="N2lpxfCJUYB1sRcF9Xbd-118">
          <mxGeometry x="30" width="165" height="30" as="geometry" />
        </mxCell>
        <mxCell id="N2lpxfCJUYB1sRcF9Xbd-121" value="" style="shape=partialRectangle;collapsible=0;dropTarget=0;pointerEvents=0;fillColor=none;top=0;left=0;bottom=0;right=0;points=[[0,0.5],[1,0.5]];portConstraint=eastwest;" vertex="1" parent="N2lpxfCJUYB1sRcF9Xbd-114">
          <mxGeometry y="90" width="195" height="30" as="geometry" />
        </mxCell>
        <mxCell id="N2lpxfCJUYB1sRcF9Xbd-122" value="FK2" style="shape=partialRectangle;connectable=0;fillColor=none;top=0;left=0;bottom=0;right=0;editable=1;overflow=hidden;" vertex="1" parent="N2lpxfCJUYB1sRcF9Xbd-121">
          <mxGeometry width="30" height="30" as="geometry" />
        </mxCell>
        <mxCell id="N2lpxfCJUYB1sRcF9Xbd-123" value="owner_id int NOT NULL" style="shape=partialRectangle;connectable=0;fillColor=none;top=0;left=0;bottom=0;right=0;align=left;spacingLeft=6;overflow=hidden;" vertex="1" parent="N2lpxfCJUYB1sRcF9Xbd-121">
          <mxGeometry x="30" width="165" height="30" as="geometry" />
        </mxCell>
        <mxCell id="N2lpxfCJUYB1sRcF9Xbd-124" value="" style="shape=partialRectangle;collapsible=0;dropTarget=0;pointerEvents=0;fillColor=none;top=0;left=0;bottom=0;right=0;points=[[0,0.5],[1,0.5]];portConstraint=eastwest;" vertex="1" parent="N2lpxfCJUYB1sRcF9Xbd-114">
          <mxGeometry y="120" width="195" height="30" as="geometry" />
        </mxCell>
        <mxCell id="N2lpxfCJUYB1sRcF9Xbd-125" value="" style="shape=partialRectangle;connectable=0;fillColor=none;top=0;left=0;bottom=0;right=0;editable=1;overflow=hidden;" vertex="1" parent="N2lpxfCJUYB1sRcF9Xbd-124">
          <mxGeometry width="30" height="30" as="geometry" />
        </mxCell>
        <mxCell id="N2lpxfCJUYB1sRcF9Xbd-126" value="position char(50) NOT NULL" style="shape=partialRectangle;connectable=0;fillColor=none;top=0;left=0;bottom=0;right=0;align=left;spacingLeft=6;overflow=hidden;" vertex="1" parent="N2lpxfCJUYB1sRcF9Xbd-124">
          <mxGeometry x="30" width="165" height="30" as="geometry" />
        </mxCell>
        <mxCell id="N2lpxfCJUYB1sRcF9Xbd-127" value="Merchant_Bank" style="shape=table;startSize=30;container=1;collapsible=1;childLayout=tableLayout;fixedRows=1;rowLines=0;fontStyle=1;align=center;resizeLast=1;html=1;" vertex="1" parent="1">
          <mxGeometry x="890" y="900" width="225" height="150" as="geometry" />
        </mxCell>
        <mxCell id="N2lpxfCJUYB1sRcF9Xbd-128" value="" style="shape=partialRectangle;collapsible=0;dropTarget=0;pointerEvents=0;fillColor=none;top=0;left=0;bottom=1;right=0;points=[[0,0.5],[1,0.5]];portConstraint=eastwest;" vertex="1" parent="N2lpxfCJUYB1sRcF9Xbd-127">
          <mxGeometry y="30" width="225" height="30" as="geometry" />
        </mxCell>
        <mxCell id="N2lpxfCJUYB1sRcF9Xbd-129" value="PK" style="shape=partialRectangle;connectable=0;fillColor=none;top=0;left=0;bottom=0;right=0;fontStyle=1;overflow=hidden;" vertex="1" parent="N2lpxfCJUYB1sRcF9Xbd-128">
          <mxGeometry width="30" height="30" as="geometry" />
        </mxCell>
        <mxCell id="N2lpxfCJUYB1sRcF9Xbd-130" value="UniqueID" style="shape=partialRectangle;connectable=0;fillColor=none;top=0;left=0;bottom=0;right=0;align=left;spacingLeft=6;fontStyle=5;overflow=hidden;" vertex="1" parent="N2lpxfCJUYB1sRcF9Xbd-128">
          <mxGeometry x="30" width="195" height="30" as="geometry" />
        </mxCell>
        <mxCell id="N2lpxfCJUYB1sRcF9Xbd-131" value="" style="shape=partialRectangle;collapsible=0;dropTarget=0;pointerEvents=0;fillColor=none;top=0;left=0;bottom=0;right=0;points=[[0,0.5],[1,0.5]];portConstraint=eastwest;" vertex="1" parent="N2lpxfCJUYB1sRcF9Xbd-127">
          <mxGeometry y="60" width="225" height="30" as="geometry" />
        </mxCell>
        <mxCell id="N2lpxfCJUYB1sRcF9Xbd-132" value="FK1" style="shape=partialRectangle;connectable=0;fillColor=none;top=0;left=0;bottom=0;right=0;editable=1;overflow=hidden;" vertex="1" parent="N2lpxfCJUYB1sRcF9Xbd-131">
          <mxGeometry width="30" height="30" as="geometry" />
        </mxCell>
        <mxCell id="N2lpxfCJUYB1sRcF9Xbd-133" value="merchant_id int not NULL" style="shape=partialRectangle;connectable=0;fillColor=none;top=0;left=0;bottom=0;right=0;align=left;spacingLeft=6;overflow=hidden;" vertex="1" parent="N2lpxfCJUYB1sRcF9Xbd-131">
          <mxGeometry x="30" width="195" height="30" as="geometry" />
        </mxCell>
        <mxCell id="N2lpxfCJUYB1sRcF9Xbd-134" value="" style="shape=partialRectangle;collapsible=0;dropTarget=0;pointerEvents=0;fillColor=none;top=0;left=0;bottom=0;right=0;points=[[0,0.5],[1,0.5]];portConstraint=eastwest;" vertex="1" parent="N2lpxfCJUYB1sRcF9Xbd-127">
          <mxGeometry y="90" width="225" height="30" as="geometry" />
        </mxCell>
        <mxCell id="N2lpxfCJUYB1sRcF9Xbd-135" value="FK2" style="shape=partialRectangle;connectable=0;fillColor=none;top=0;left=0;bottom=0;right=0;editable=1;overflow=hidden;" vertex="1" parent="N2lpxfCJUYB1sRcF9Xbd-134">
          <mxGeometry width="30" height="30" as="geometry" />
        </mxCell>
        <mxCell id="N2lpxfCJUYB1sRcF9Xbd-136" value="bank_account int NOT NULL" style="shape=partialRectangle;connectable=0;fillColor=none;top=0;left=0;bottom=0;right=0;align=left;spacingLeft=6;overflow=hidden;" vertex="1" parent="N2lpxfCJUYB1sRcF9Xbd-134">
          <mxGeometry x="30" width="195" height="30" as="geometry" />
        </mxCell>
        <mxCell id="N2lpxfCJUYB1sRcF9Xbd-137" value="" style="shape=partialRectangle;collapsible=0;dropTarget=0;pointerEvents=0;fillColor=none;top=0;left=0;bottom=0;right=0;points=[[0,0.5],[1,0.5]];portConstraint=eastwest;" vertex="1" parent="N2lpxfCJUYB1sRcF9Xbd-127">
          <mxGeometry y="120" width="225" height="30" as="geometry" />
        </mxCell>
        <mxCell id="N2lpxfCJUYB1sRcF9Xbd-138" value="" style="shape=partialRectangle;connectable=0;fillColor=none;top=0;left=0;bottom=0;right=0;editable=1;overflow=hidden;" vertex="1" parent="N2lpxfCJUYB1sRcF9Xbd-137">
          <mxGeometry width="30" height="30" as="geometry" />
        </mxCell>
        <mxCell id="N2lpxfCJUYB1sRcF9Xbd-139" value="Active char(50)" style="shape=partialRectangle;connectable=0;fillColor=none;top=0;left=0;bottom=0;right=0;align=left;spacingLeft=6;overflow=hidden;" vertex="1" parent="N2lpxfCJUYB1sRcF9Xbd-137">
          <mxGeometry x="30" width="195" height="30" as="geometry" />
        </mxCell>
        <mxCell id="N2lpxfCJUYB1sRcF9Xbd-140" value="" style="edgeStyle=entityRelationEdgeStyle;fontSize=12;html=1;endArrow=ERzeroToMany;startArrow=ERmandOne;" edge="1" parent="1" source="2c53xwHn9IboJPMbNdfc-148" target="N2lpxfCJUYB1sRcF9Xbd-105">
          <mxGeometry width="100" height="100" relative="1" as="geometry">
            <mxPoint x="760" y="820" as="sourcePoint" />
            <mxPoint x="1290" y="890" as="targetPoint" />
          </mxGeometry>
        </mxCell>
        <mxCell id="N2lpxfCJUYB1sRcF9Xbd-141" value="" style="edgeStyle=entityRelationEdgeStyle;fontSize=12;html=1;endArrow=ERzeroToMany;startArrow=ERmandOne;" edge="1" parent="1" source="2c53xwHn9IboJPMbNdfc-36" target="N2lpxfCJUYB1sRcF9Xbd-108">
          <mxGeometry width="100" height="100" relative="1" as="geometry">
            <mxPoint x="760" y="820" as="sourcePoint" />
            <mxPoint x="860" y="720" as="targetPoint" />
          </mxGeometry>
        </mxCell>
        <mxCell id="N2lpxfCJUYB1sRcF9Xbd-142" value="" style="edgeStyle=entityRelationEdgeStyle;fontSize=12;html=1;endArrow=ERzeroToMany;startArrow=ERmandOne;" edge="1" parent="1" source="2c53xwHn9IboJPMbNdfc-148" target="N2lpxfCJUYB1sRcF9Xbd-118">
          <mxGeometry width="100" height="100" relative="1" as="geometry">
            <mxPoint x="760" y="820" as="sourcePoint" />
            <mxPoint x="860" y="720" as="targetPoint" />
          </mxGeometry>
        </mxCell>
        <mxCell id="N2lpxfCJUYB1sRcF9Xbd-143" value="" style="edgeStyle=entityRelationEdgeStyle;fontSize=12;html=1;endArrow=ERzeroToMany;startArrow=ERmandOne;" edge="1" parent="1" source="2c53xwHn9IboJPMbNdfc-70" target="N2lpxfCJUYB1sRcF9Xbd-121">
          <mxGeometry width="100" height="100" relative="1" as="geometry">
            <mxPoint x="760" y="820" as="sourcePoint" />
            <mxPoint x="860" y="720" as="targetPoint" />
          </mxGeometry>
        </mxCell>
        <mxCell id="N2lpxfCJUYB1sRcF9Xbd-144" value="" style="edgeStyle=entityRelationEdgeStyle;fontSize=12;html=1;endArrow=ERzeroToMany;startArrow=ERmandOne;" edge="1" parent="1" source="2c53xwHn9IboJPMbNdfc-122" target="N2lpxfCJUYB1sRcF9Xbd-134">
          <mxGeometry width="100" height="100" relative="1" as="geometry">
            <mxPoint x="760" y="1150" as="sourcePoint" />
            <mxPoint x="860" y="1050" as="targetPoint" />
          </mxGeometry>
        </mxCell>
        <mxCell id="N2lpxfCJUYB1sRcF9Xbd-145" value="" style="edgeStyle=entityRelationEdgeStyle;fontSize=12;html=1;endArrow=ERzeroToMany;startArrow=ERmandOne;" edge="1" parent="1" source="2c53xwHn9IboJPMbNdfc-148" target="N2lpxfCJUYB1sRcF9Xbd-131">
          <mxGeometry width="100" height="100" relative="1" as="geometry">
            <mxPoint x="760" y="1150" as="sourcePoint" />
            <mxPoint x="860" y="1050" as="targetPoint" />
          </mxGeometry>
        </mxCell>
        <mxCell id="N2lpxfCJUYB1sRcF9Xbd-146" value="&lt;h1&gt;Merchant Objects&lt;/h1&gt;&lt;p&gt;&lt;br&gt;&lt;/p&gt;" style="text;html=1;strokeColor=none;fillColor=none;spacing=5;spacingTop=-20;whiteSpace=wrap;overflow=hidden;rounded=0;align=center;labelBackgroundColor=none;" vertex="1" parent="1">
          <mxGeometry x="895" y="50" width="290" height="60" as="geometry" />
        </mxCell>
      </root>
    </mxGraphModel>
  </diagram>
</mxfile>
